<svg xmlns="http://www.w3.org/2000/svg" width="2735" height="907" fill="none"><g clip-path="url(#a)"><mask id="b" fill="#fff"><path d="M0 0h2735v907H0z"/></mask><path fill="#050505" d="M0 0h2735v907H0z"/><path fill="#333" d="M0 1h2735v-2H0zm2735 905H0v2h2735z" mask="url(#b)"/><g fill="#181818" opacity=".6"><path d="M2735 293H3v1h2732zM2735 320H3v1h2732zM2735 347H3v1h2732zM2735 374H3v1h2732zM2735 401H3v1h2732zM2735 427H3v1h2732zM2735 454H3v1h2732zM2735 481H3v1h2732zM2735 508H3v1h2732zM2735 535H3v1h2732zM2735 561H3v1h2732zM2735 588H3v1h2732zM2735 615H3v1h2732zM2735 642H3v1h2732zM2735 669H3v1h2732zM2735 696H3v1h2732zM2735 723H3v1h2732zM2735 750H3v1h2732zM2735 777H3v1h2732zM2735 804H3v1h2732zM2735 831H3v1h2732zM2735 858H3v1h2732zM2735 885H3v1h2732zM2735 240H0v1h2735zM2735 214H0v1h2735zM2735 188H0v1h2735zM2735 162H0v1h2735zM2735 136H0v1h2735zM2735 110H0v1h2735zM2735 84H0v1h2735zM2735 58H0v1h2735zM2735 32H0v1h2735zM2735 6H0v1h2735zM2735 266H3v1h2732z"/><path d="M720 4h-1v899h1zM694 4h-1v899h1zM668 4h-1v899h1zM642 4h-1v899h1zM616 4h-1v899h1zM590 4h-1v899h1zM564 4h-1v899h1zM538 4h-1v899h1zM512 4h-1v899h1zM486 4h-1v899h1zM460 4h-1v899h1zM434 4h-1v899h1zM408 4h-1v899h1zM382 4h-1v899h1zM356 4h-1v899h1zM330 4h-1v899h1zM304 4h-1v899h1zM278 4h-1v899h1zM252 4h-1v899h1zM226 4h-1v899h1zM200 4h-1v899h1zM174 4h-1v899h1zM148 4h-1v899h1zM122 4h-1v899h1zM96 4h-1v899h1zM70 4h-1v899h1zM44 4h-1v899h1zM18 4h-1v899h1zM746 4h-1v899h1zM771 4h-1v899h1zM796 4h-1v899h1zM822 4h-1v899h1zM847 4h-1v899h1zM871 4h-1v899h1zM897 4h-1v899h1zM923 4h-1v899h1zM948 4h-1v899h1zM974 4h-1v899h1zM1000 4h-1v899h1zM1025 4h-1v899h1zM1049 4h-1v899h1zM1075 4h-1v899h1zM1101 4h-1v899h1zM1127 4h-1v899h1zM1152 4h-1v899h1zM1177 4h-1v899h1zM1203 4h-1v899h1zM1253 4h-1v899h1zM1278 4h-1v899h1zM1304 4h-1v899h1zM1329 4h-1v899h1zM1355 4h-1v899h1zM1381 4h-1v899h1zM1406 4h-1v899h1zM1431 4h-1v899h1zM1456 4h-1v899h1zM1481 4h-1v899h1zM1507 4h-1v899h1zM1532 4h-1v899h1zM1558 4h-1v899h1zM1584 4h-1v899h1zM1609 4h-1v899h1zM1635 4h-1v899h1zM1660 4h-1v899h1zM1685 4h-1v899h1zM1710 4h-1v899h1zM1736 4h-1v899h1zM1762 4h-1v899h1zM1788 4h-1v899h1zM1812 4h-1v899h1zM1838 4h-1v899h1zM1862 4h-1v899h1zM1886 4h-1v899h1zM1910 4h-1v899h1zM1934 4h-1v899h1zM1958 4h-1v899h1zM1982 4h-1v899h1zM2006 4h-1v899h1zM2030 4h-1v899h1zM2054 4h-1v899h1zM2078 4h-1v899h1zM2102 4h-1v899h1zM2126 4h-1v899h1zM2150 4h-1v899h1zM2174 4h-1v899h1zM2198 4h-1v899h1zM2222 4h-1v899h1zM2246 4h-1v899h1zM2270 4h-1v899h1zM2294 4h-1v899h1zM2318 4h-1v899h1zM2342 4h-1v899h1zM2366 4h-1v899h1zM2390 4h-1v899h1zM2414 4h-1v899h1zM2438 4h-1v899h1zM2462 4h-1v899h1zM2486 4h-1v899h1zM2510 4h-1v899h1zM2534 4h-1v899h1zM2558 4h-1v899h1zM2582 4h-1v899h1zM2606 4h-1v899h1zM2630 4h-1v899h1zM2654 4h-1v899h1zM2678 4h-1v899h1zM2702 4h-1v899h1zM2726 4h-1v899h1zM1228 4h-1v899h1z"/></g></g><path stroke="#333" d="M.5.5h2734v906H.5z"/><defs><clipPath id="a"><path fill="#fff" d="M0 0h2735v907H0z"/></clipPath></defs></svg>