<svg xmlns="http://www.w3.org/2000/svg" width="245" height="209" fill="none"><g clip-path="url(#a)" opacity=".44"><g stroke-miterlimit="10" stroke-width=".8" opacity=".9"><path stroke="url(#b)" d="M404.751 82.451c3.705-51.468-83.616-99.733-195.038-107.802S4.962 1.762 1.256 53.23s83.616 99.733 195.038 107.802 204.751-27.113 208.457-78.581Z"/><path stroke="url(#c)" d="M397.333 71.723c1.454-50.317-85.693-93.674-194.649-96.84C93.728-28.284 4.224 9.938 2.769 60.255s85.694 93.674 194.65 96.84c108.955 3.167 198.46-35.055 199.914-85.372Z"/><path stroke="url(#d)" d="M198.591 153.207c106.482-1.734 192.157-43.006 191.361-92.183-.795-49.178-87.761-87.639-194.243-85.905S3.552 18.124 4.347 67.302c.796 49.177 87.762 87.638 194.244 85.905Z"/><path stroke="url(#e)" d="M199.767 149.296c104.001-6.636 185.84-50.962 182.792-99.006-3.047-48.044-89.827-81.612-193.827-74.976S2.892 26.275 5.94 74.319c3.047 48.044 89.827 81.612 193.827 74.977Z"/><path stroke="url(#f)" d="M200.87 145.352c101.529-11.529 179.543-58.89 174.249-105.783s-91.891-75.56-193.421-64.031C80.169-12.932 2.155 34.428 7.449 81.32s91.892 75.561 193.421 64.031Z"/><path stroke="url(#g)" d="M202.004 141.448c99.067-16.43 173.262-66.837 165.719-112.587s-93.969-69.517-193.037-53.086C75.619-7.795 1.424 42.613 8.967 88.362s93.969 69.517 193.037 53.086Z"/><path stroke="url(#h)" d="M203.163 137.54c96.586-21.334 166.944-74.789 157.149-119.395-9.795-44.607-96.034-63.473-192.619-42.14C71.107-2.66.749 50.794 10.544 95.4c9.795 44.607 96.034 63.473 192.619 42.14Z"/><path stroke="url(#i)" d="M204.308 133.637c94.12-26.231 160.655-82.74 148.609-126.214S254.806-50.031 160.686-23.8.031 58.94 12.076 102.415c12.046 43.475 98.111 57.454 192.232 31.222Z"/><path stroke="url(#j)" d="M205.479 129.685C297.118 98.541 359.811 38.977 345.508-3.354s-100.185-51.4-191.824-20.255C62.046 7.536-.647 67.099 13.655 109.43c14.303 42.331 100.186 51.4 191.824 20.255Z"/><path stroke="url(#k)" d="M206.597 125.762C295.77 89.719 354.646 27.119 338.1-14.058s-102.249-45.339-191.423-9.296C57.504 12.69-1.372 75.29 15.175 116.466s102.249 45.339 191.422 9.296Z"/><path stroke="url(#l)" d="M207.715 121.842c86.7-40.936 141.749-106.578 122.955-146.616s-104.314-39.31-191.014 1.626S-2.093 83.43 16.701 123.468s104.314 39.31 191.014-1.626Z"/><path stroke="url(#m)" d="M208.89 117.941C293.112 72.097 344.326 3.403 323.279-35.491S216.893-68.75 132.671-22.907C48.448 22.938-2.766 91.631 18.281 130.526s106.386 33.26 190.609-12.584Z"/><path stroke="url(#n)" d="M210.012 114.022C291.767 63.282 339.159-8.454 315.866-46.206S207.415-73.429 125.66-22.689-3.488 99.787 19.805 137.54s108.452 27.223 190.207-23.517Z"/><path stroke="url(#o)" d="M211.175 110.047c79.282-55.655 122.843-130.446 97.297-167.05s-110.526-21.16-189.807 34.496C39.384 33.148-4.178 107.939 21.368 144.543s110.526 21.16 189.807-34.496Z"/><path stroke="url(#p)" d="M212.318 106.167C289.13 45.611 328.867-32.228 301.073-67.69S188.478-82.808 111.666-22.25-4.882 116.144 22.912 151.606s112.594 15.118 189.406-45.439Z"/><path stroke="url(#q)" d="M213.436 102.256c74.335-65.45 110.238-146.333 80.192-180.658-30.045-34.325-114.663-9.093-188.998 56.357S-5.608 124.29 24.438 158.614s114.663 9.092 188.998-56.358Z"/><path stroke="url(#r)" d="M214.6 98.331c71.864-70.359 103.939-154.295 71.641-187.477-32.297-33.181-116.736-3.043-188.6 67.316S-6.3 132.465 25.999 165.647c32.297 33.182 116.737 3.043 188.601-67.316Z"/><path stroke="url(#s)" d="M215.768 94.406c69.393-75.262 97.641-162.248 63.093-194.289s-118.809 2.998-188.202 78.26C21.266 53.64-6.981 140.627 27.566 172.668c34.548 32.04 118.809-2.998 188.202-78.26Z"/><path stroke="url(#t)" d="M216.88 90.493c66.922-80.158 91.349-170.186 54.558-201.081-36.79-30.896-120.866 9.04-187.788 89.198C16.728 58.77-7.7 148.796 29.092 179.691c36.79 30.896 120.866-9.039 187.788-89.198Z"/><path stroke="url(#u)" d="M217.985 86.545c64.442-85.054 85.038-178.12 46.004-207.867C224.955-151.07 141.072-106.235 76.631-21.18S-8.408 156.939 30.626 186.687 153.544 171.6 217.985 86.545Z"/><path stroke="url(#v)" d="M219.19 82.648c61.967-89.956 78.726-186.074 37.432-214.687s-125.003 21.115-186.97 111.07C7.683 68.987-9.076 165.106 32.218 193.718s125.003-21.115 186.971-111.07Z"/><path stroke="url(#w)" d="M220.306 78.76c59.513-94.854 72.466-194.021 28.932-221.495-43.535-27.473-127.07 27.149-186.583 122.004C3.143 74.123-9.81 173.29 33.724 200.764c43.534 27.473 127.07-27.149 186.582-122.004Z"/></g></g><defs><linearGradient id="b" x1="1.256" x2="404.763" y1="53.23" y2="82.281" gradientUnits="userSpaceOnUse"><stop stop-color="#787878"/><stop offset="1" stop-color="#B4B4B4"/></linearGradient><linearGradient id="c" x1="2.769" x2="397.335" y1="60.255" y2="71.656" gradientUnits="userSpaceOnUse"><stop stop-color="#787878"/><stop offset="1" stop-color="#B4B4B4"/></linearGradient><linearGradient id="d" x1="195.709" x2="198.608" y1="-24.881" y2="153.206" gradientUnits="userSpaceOnUse"><stop stop-color="#787878"/><stop offset="1" stop-color="#B4B4B4"/></linearGradient><linearGradient id="e" x1="188.732" x2="199.832" y1="-24.686" y2="149.292" gradientUnits="userSpaceOnUse"><stop stop-color="#787878"/><stop offset="1" stop-color="#B4B4B4"/></linearGradient><linearGradient id="f" x1="181.698" x2="200.981" y1="-24.462" y2="145.34" gradientUnits="userSpaceOnUse"><stop stop-color="#787878"/><stop offset="1" stop-color="#B4B4B4"/></linearGradient><linearGradient id="g" x1="174.686" x2="202.16" y1="-24.225" y2="141.423" gradientUnits="userSpaceOnUse"><stop stop-color="#787878"/><stop offset="1" stop-color="#B4B4B4"/></linearGradient><linearGradient id="h" x1="167.693" x2="203.362" y1="-23.995" y2="137.496" gradientUnits="userSpaceOnUse"><stop stop-color="#787878"/><stop offset="1" stop-color="#B4B4B4"/></linearGradient><linearGradient id="i" x1="160.686" x2="204.545" y1="-23.799" y2="133.571" gradientUnits="userSpaceOnUse"><stop stop-color="#787878"/><stop offset="1" stop-color="#B4B4B4"/></linearGradient><linearGradient id="j" x1="153.684" x2="205.752" y1="-23.609" y2="129.593" gradientUnits="userSpaceOnUse"><stop stop-color="#787878"/><stop offset="1" stop-color="#B4B4B4"/></linearGradient><linearGradient id="k" x1="146.677" x2="206.899" y1="-23.354" y2="125.64" gradientUnits="userSpaceOnUse"><stop stop-color="#787878"/><stop offset="1" stop-color="#B4B4B4"/></linearGradient><linearGradient id="l" x1="139.656" x2="208.042" y1="-23.148" y2="121.688" gradientUnits="userSpaceOnUse"><stop stop-color="#787878"/><stop offset="1" stop-color="#B4B4B4"/></linearGradient><linearGradient id="m" x1="132.671" x2="209.235" y1="-22.907" y2="117.753" gradientUnits="userSpaceOnUse"><stop stop-color="#787878"/><stop offset="1" stop-color="#B4B4B4"/></linearGradient><linearGradient id="n" x1="125.66" x2="210.369" y1="-22.689" y2="113.8" gradientUnits="userSpaceOnUse"><stop stop-color="#787878"/><stop offset="1" stop-color="#B4B4B4"/></linearGradient><linearGradient id="o" x1="118.665" x2="211.539" y1="-22.507" y2="109.792" gradientUnits="userSpaceOnUse"><stop stop-color="#787878"/><stop offset="1" stop-color="#B4B4B4"/></linearGradient><linearGradient id="p" x1="111.666" x2="212.682" y1="-22.251" y2="105.88" gradientUnits="userSpaceOnUse"><stop stop-color="#787878"/><stop offset="1" stop-color="#B4B4B4"/></linearGradient><linearGradient id="q" x1="104.63" x2="213.796" y1="-22.045" y2="101.94" gradientUnits="userSpaceOnUse"><stop stop-color="#787878"/><stop offset="1" stop-color="#B4B4B4"/></linearGradient><linearGradient id="r" x1="97.641" x2="214.95" y1="-21.83" y2="97.988" gradientUnits="userSpaceOnUse"><stop stop-color="#787878"/><stop offset="1" stop-color="#B4B4B4"/></linearGradient><linearGradient id="s" x1="90.659" x2="216.105" y1="-21.622" y2="94.041" gradientUnits="userSpaceOnUse"><stop stop-color="#787878"/><stop offset="1" stop-color="#B4B4B4"/></linearGradient><linearGradient id="t" x1="83.65" x2="217.201" y1="-21.39" y2="90.109" gradientUnits="userSpaceOnUse"><stop stop-color="#787878"/><stop offset="1" stop-color="#B4B4B4"/></linearGradient><linearGradient id="u" x1="76.63" x2="218.288" y1="-21.18" y2="86.146" gradientUnits="userSpaceOnUse"><stop stop-color="#787878"/><stop offset="1" stop-color="#B4B4B4"/></linearGradient><linearGradient id="v" x1="69.651" x2="219.472" y1="-20.969" y2="82.238" gradientUnits="userSpaceOnUse"><stop stop-color="#787878"/><stop offset="1" stop-color="#B4B4B4"/></linearGradient><linearGradient id="w" x1="62.655" x2="220.567" y1="-20.731" y2="78.344" gradientUnits="userSpaceOnUse"><stop stop-color="#787878"/><stop offset="1" stop-color="#B4B4B4"/></linearGradient><clipPath id="a"><path fill="#fff" d="M0-151h406v360H0z"/></clipPath></defs></svg>