<svg xmlns="http://www.w3.org/2000/svg" width="293" height="251" fill="none"><g opacity=".44"><path fill="url(#a)" d="M333.782 1.624c2.442-5.966 2.711-11.377.707-16.032-4.912-11.401-23.334-16.902-50.519-15.115-53.061 3.5-125.094 33.172-160.6 66.16-16.204 15.06-22.717 28.939-18.33 39.088 4.911 11.402 23.334 16.903 50.519 15.116 53.06-3.5 125.1-33.188 160.6-66.16 8.788-8.166 14.734-15.996 17.63-23.073zM124.055 37.36c35.355-32.845 107.12-62.405 159.99-65.89 26.748-1.762 44.793 3.529 49.543 14.512 4.202 9.741-2.225 23.228-18.098 37.98-35.356 32.845-107.121 62.405-159.99 65.89-26.749 1.763-44.794-3.528-49.544-14.512-4.201-9.74 2.225-23.228 18.099-37.98"/><path fill="url(#b)" d="M336.725-2.164c2.85-6.966 3.065-13.195.501-18.338-5.995-12.012-26.518-16.909-56.333-13.4-56.209 6.62-129.456 40.797-163.265 76.201-14.852 15.56-20.299 29.596-15.328 39.54 5.996 12.012 26.518 16.909 56.334 13.4 56.208-6.62 129.455-40.797 163.264-76.201 7.192-7.524 12.164-14.696 14.833-21.218zM103.7 63.886c2.616-6.394 7.544-13.455 14.648-20.903 33.675-35.255 106.647-69.305 162.658-75.895 29.366-3.451 49.527 1.242 55.332 12.862 4.763 9.544-.62 23.198-15.167 38.42-33.674 35.255-106.646 69.305-162.657 75.895-29.366 3.45-49.527-1.243-55.332-12.862-2.429-4.884-2.216-10.836.518-17.516"/><path fill="url(#c)" d="M339.232-5.714c3.357-8.204 3.491-15.411.231-21.117-7.22-12.643-29.967-16.764-62.39-11.322-59.196 9.936-133.154 48.75-164.871 86.512-13.4 15.95-17.708 30.1-12.147 39.822 7.22 12.643 29.968 16.765 62.384 11.338 59.196-9.936 133.154-48.75 164.871-86.511 5.554-6.601 9.539-12.899 11.916-18.706zM101.191 67.435c2.331-5.697 6.283-11.915 11.773-18.45 31.582-37.612 105.269-76.26 164.267-86.165 31.989-5.38 54.356-1.414 61.362 10.845 5.342 9.355 1.072 23.095-12.039 38.7-31.582 37.612-105.268 76.26-164.267 86.166-31.989 5.379-54.356 1.413-61.362-10.846-3.108-5.44-2.968-12.348.266-20.25"/><path fill="url(#d)" d="M341.431-9.094c3.948-9.648 3.873-17.885-.291-24.276-8.635-13.26-33.676-16.485-68.672-8.873-61.975 13.468-136.124 57.002-165.302 97.025-12.028 16.492-15.048 30.299-8.77 39.944 8.636 13.259 33.676 16.485 68.673 8.873C229.043 90.131 303.192 46.597 332.37 6.575c4.043-5.534 7.061-10.782 9.061-15.67M99.01 70.82c1.967-4.808 4.953-9.977 8.954-15.454 29.052-39.851 102.945-83.212 164.722-96.65 34.588-7.52 59.248-4.45 67.641 8.45 6.042 9.272 3.017 22.687-8.738 38.828-29.053 39.852-102.946 83.213-164.723 96.65-34.588 7.521-59.248 4.45-67.64-8.45-3.983-6.113-4.019-14.037-.207-23.352z"/><path fill="url(#e)" d="M342.986-11.805c4.721-11.536 4.485-21.191-.788-28.314-10.238-13.822-37.637-15.994-75.168-5.991-64.491 17.217-138.279 65.53-164.466 107.703-10.374 16.706-12.187 30.506-5.228 39.893 10.238 13.823 37.637 15.994 75.167 5.992 64.491-17.217 138.28-65.53 164.466-107.703 2.503-4.033 4.51-7.899 6.017-11.58M97.446 73.558c1.48-3.617 3.468-7.435 5.942-11.443 26.077-41.995 99.596-90.103 163.877-107.259 36.564-9.768 64.265-7.657 74.116 5.618 6.694 9.037 4.875 22.446-5.274 38.781-26.077 41.996-99.596 90.104-163.876 107.259-36.564 9.768-64.266 7.658-74.117-5.617-5.06-6.831-5.246-16.152-.669-27.339"/><path fill="url(#f)" d="M344.007-13.801c5.702-13.932 5.225-25.353-1.462-33.277-11.904-14.096-42.483-15.106-81.781-2.64C194.039-28.58 121.244 24.55 98.499 68.722c-8.679 16.863-9.198 30.581-1.514 39.691 11.92 14.103 42.489 15.09 81.781 2.64 66.725-21.138 139.52-74.266 162.265-118.44 1.119-2.191 2.126-4.336 2.976-6.414M99.38 69.194c22.638-43.958 95.164-96.882 161.679-117.958 38.908-12.328 69.094-11.443 80.736 2.343 7.413 8.776 6.842 22.121-1.643 38.6-22.638 43.958-95.164 96.882-161.678 117.958-38.909 12.329-69.094 11.443-80.736-2.342-7.413-8.776-6.843-22.122 1.642-38.6"/><path fill="url(#g)" d="m344.474-14.808.006-.016c6.928-16.93 6.087-30.538-2.388-39.342-13.987-14.486-47.048-14.047-88.482 1.194-68.623 25.233-139.741 83.18-158.558 129.164l-.007.016c-6.928 16.93-6.087 30.539 2.389 39.342 13.986 14.486 47.054 14.031 88.482-1.194 68.623-25.233 139.74-83.18 158.558-129.164M95.963 76.546C114.689 30.784 185.55-26.897 253.956-52.052c41.045-15.104 73.737-15.638 87.433-1.438 8.192 8.502 8.966 21.73 2.193 38.28l-.006.016C324.849 30.57 253.989 88.25 185.582 113.405c-41.044 15.104-73.73 15.622-87.432 1.438-8.192-8.502-8.966-21.73-2.194-38.28z"/><path fill="url(#h)" d="M344.46-14.766a87 87 0 0 0 2.794-7.823c5.126-16.964 2.867-30.412-6.528-38.87-16.325-14.7-51.892-12.62-95.149 5.58-70.147 29.5-138.92 92.222-153.31 139.834-5.126 16.964-2.867 30.411 6.529 38.869 16.325 14.701 51.892 12.62 95.148-5.58 66.368-27.916 131.51-85.565 150.509-131.994zM96.001 76.46C114.91 30.254 179.808-27.162 245.968-54.978c42.892-18.034 78.078-20.178 94.105-5.747 9.083 8.182 11.246 21.275 6.244 37.845-14.301 47.351-82.818 109.807-152.735 139.198-42.892 18.034-78.078 20.179-94.105 5.747-9.083-8.181-11.246-21.274-6.243-37.845a86 86 0 0 1 2.774-7.775z"/><path fill="url(#i)" d="M343.971-13.404c2.422-5.919 4.197-11.658 5.256-17.19 3.28-16.978-.493-30.211-10.92-38.276-18.968-14.671-56.979-10.738-101.689 10.517C165.357-24.455 99.714 42.974 90.272 91.943c-3.28 16.979.493 30.212 10.92 38.277 18.967 14.671 56.978 10.738 101.688-10.517 63.215-30.077 122.04-86.551 141.091-133.107M96.467 75.083c18.954-46.318 77.567-102.545 140.58-132.538 44.368-21.098 81.991-25.08 100.658-10.624 10.101 7.82 13.75 20.724 10.555 37.312-1.055 5.478-2.817 11.185-5.219 17.056-18.954 46.318-77.567 102.545-140.58 132.538-44.368 21.098-81.991 25.08-100.658 10.624-10.101-7.82-13.75-20.724-10.555-37.312 1.055-5.478 2.817-11.185 5.22-17.056"/><path fill="url(#j)" d="M343.092-10.472c4.065-9.933 6.582-19.48 7.299-28.338 1.357-16.988-4.052-29.983-15.666-37.588-21.897-14.351-62.242-8.335-107.929 16.077C154.913-21.917 93.16 50.087 89.153 100.169c-1.357 16.987 4.051 29.982 15.666 37.588 21.896 14.351 62.242 8.334 107.929-16.078 59.154-31.609 111.449-85.976 130.344-132.15M97.366 72.13c18.798-45.937 70.919-100.06 129.888-131.578 45.354-24.233 85.337-30.268 106.91-16.124 11.292 7.4 16.547 20.09 15.221 36.684-3.998 49.788-65.51 121.428-137.134 159.697-45.354 24.233-85.336 30.269-106.909 16.124-11.292-7.4-16.547-20.09-15.222-36.684.707-8.788 3.198-18.272 7.23-28.126z"/><path fill="url(#k)" d="M341.865-5.672c6.058-14.805 9.169-28.926 8.705-41.509-.646-17.029-7.864-29.764-20.868-36.827-25.07-13.612-67.564-5.288-113.661 22.253C144.052-18.745 87.043 57.646 88.964 108.542c.645 17.029 7.864 29.764 20.868 36.827 25.07 13.612 67.564 5.288 113.661-22.253 54.206-32.374 99.918-83.692 118.372-128.788M98.561 67.343c18.363-44.874 63.93-95.974 117.967-128.25 45.802-27.366 87.936-35.67 112.686-22.226 12.69 6.879 19.727 19.335 20.359 35.989 1.905 50.574-54.888 126.571-126.599 169.399-45.803 27.366-87.936 35.67-112.686 22.226-12.69-6.879-19.727-19.335-20.36-35.989-.477-12.458 2.627-26.472 8.633-41.15"/><path fill="url(#l)" d="M340.489 1.122c8.422-20.58 11.949-40.2 9.247-56.774-2.791-17.129-12.024-29.558-26.708-35.956-28.423-12.39-72.786-1.534-118.678 29.037C132.811-14.913 81.407 65.66 89.77 117.025c2.79 17.129 12.023 29.559 26.707 35.957 28.423 12.39 72.786 1.534 118.678-29.037C283.601 91.66 322.821 44.299 340.489 1.122M99.917 60.583C117.494 17.63 156.589-29.56 204.904-61.752c45.607-30.372 89.61-41.209 117.738-28.958 14.357 6.246 23.395 18.429 26.128 35.2 8.313 51.03-42.902 131.143-114.147 178.626-45.607 30.373-89.61 41.209-117.738 28.958-14.357-6.245-23.395-18.428-26.128-35.2-2.668-16.431.825-35.878 9.176-56.284z"/><path fill="url(#m)" d="M339.218 9.895c11.136-27.213 14.749-53.336 8.571-74.093-5.148-17.297-16.677-29.369-33.342-34.91-31.856-10.609-77.712 2.989-122.661 36.372C121.293-10.388 76.394 74.07 91.709 125.556c5.148 17.297 16.676 29.369 33.341 34.911 31.856 10.609 77.712-2.989 122.662-36.373 42.066-31.228 75.019-73.91 91.499-114.183zM101.191 51.818c16.408-40.098 49.258-82.62 91.2-113.769 44.703-33.188 90.218-46.722 121.766-36.22 16.35 5.45 27.661 17.284 32.7 34.259C362.05-12.81 317.325 71.183 247.129 123.3c-44.703 33.188-90.202 46.728-121.75 36.227-16.35-5.45-27.654-17.3-32.7-34.259-6.11-20.562-2.533-46.46 8.512-73.45"/><path fill="url(#n)" d="M338.389 20.43c14.142-34.56 17.35-68.204 6.283-93.129-7.795-17.528-21.951-29.156-40.987-33.611-35.176-8.245-82.02 8.265-125.321 44.139C109.569-5.146 72.105 82.874 94.84 134.062c7.796 17.528 21.951 29.156 40.987 33.611 35.177 8.244 82.02-8.266 125.321-44.139 35.295-29.257 62.339-66.688 77.241-103.105m-236.39 20.899c14.837-36.258 41.807-73.553 76.999-102.74 43.061-35.695 89.595-52.127 124.466-43.952 18.709 4.395 32.649 15.824 40.307 33.055 22.56 50.801-14.782 138.297-83.25 195.067-43.061 35.693-89.595 52.126-124.467 43.951-18.715-4.379-32.649-15.824-40.306-33.055-10.964-24.679-7.774-58.052 6.251-92.326"/><path fill="url(#o)" d="M338.459 32.166c17.324-42.335 19.316-84.46 1.827-113.292-10.824-17.823-28.057-28.857-49.83-31.876-38.208-5.317-85.426 14.19-126.359 52.198C97.72.861 68.615 92.042 99.245 142.497c10.824 17.823 28.056 28.857 49.822 31.892 38.209 5.317 85.427-14.189 126.353-52.183 28.443-26.41 50.04-58.272 63.026-90.008zM101.947 29.6c12.934-31.609 34.463-63.35 62.826-89.7 40.702-37.808 87.62-57.215 125.532-51.945 21.471 2.988 38.46 13.849 49.126 31.422 30.386 50.058 1.37 140.7-64.677 202.056-40.702 37.807-87.619 57.214-125.548 51.937-21.47-2.988-38.459-13.848-49.126-31.422-17.34-28.565-15.337-70.353 1.851-112.355z"/><path fill="url(#p)" d="M339.827 44.436c20.551-50.222 20.215-101.599-5.296-133.823-14.362-18.141-35.1-28.35-60.024-29.509-40.703-1.892-87.616 20.629-125.48 60.283-63.236 66.21-83.01 160.117-44.05 209.367 14.362 18.14 35.1 28.349 60.024 29.508 40.703 1.892 87.616-20.628 125.48-60.283 21.844-22.868 38.502-49.044 49.339-75.527zM100.573 17.333c10.798-26.389 27.401-52.476 49.174-75.262 37.665-39.44 84.295-61.854 124.721-59.964 24.63 1.15 45.127 11.223 59.303 29.14 38.654 48.865 18.93 142.199-43.995 208.055-37.664 39.439-84.294 61.854-124.72 59.964-24.63-1.15-45.128-11.224-59.304-29.14-25.268-31.958-25.587-82.921-5.179-132.793"/><path fill="url(#q)" d="M342.909 56.55c23.72-57.966 19.524-119.055-15.502-153.97-18.489-18.421-43.248-27.496-71.642-26.24-42.487 1.879-88.303 27.331-122.553 68.112-59.313 70.613-68.791 166.75-21.089 214.28 18.49 18.421 43.248 27.497 71.642 26.241 42.487-1.879 88.303-27.331 122.553-68.112 15.756-18.765 28.014-39.35 36.598-60.328zM97.499 5.196c8.552-20.898 20.755-41.394 36.462-60.086 34.067-40.56 79.615-65.899 121.834-67.759 28.11-1.242 52.615 7.73 70.905 25.959 34.742 34.612 38.876 95.268 15.312 152.852-8.552 20.898-20.756 41.395-36.463 60.087-34.066 40.559-79.614 65.899-121.834 67.758-28.11 1.242-52.615-7.729-70.905-25.958C78.068 123.437 73.935 62.781 97.5 5.197"/><path fill="url(#r)" d="M347.938 67.947c26.765-65.407 16.811-136.374-29.157-173.024-23.299-18.574-52.556-26.119-84.609-21.804-44.029 5.917-86.846 33.412-117.475 75.396-54.588 74.863-52.78 172.617 4.022 217.924 23.298 18.574 52.555 26.119 84.609 21.803 44.028-5.917 86.845-33.411 117.475-75.396 10.426-14.295 18.811-29.444 25.135-44.9M92.475-6.193c6.299-15.391 14.629-30.452 25.019-44.706 30.469-41.773 73.043-69.125 116.797-75.007 31.796-4.272 60.792 3.185 83.863 21.591 45.601 36.37 55.457 106.852 28.854 171.863C340.71 82.939 332.38 98 321.989 112.254c-30.468 41.773-73.042 69.126-116.796 75.007-31.796 4.272-60.793-3.184-83.863-21.591C75.729 129.3 65.857 58.811 92.46-6.199z"/><path fill="url(#s)" d="M355.086 78.191c29.674-72.515 11.751-153.208-46.424-190.537-28.434-18.249-63.516-23.917-98.748-15.956-43.948 9.933-84.167 39.768-110.328 81.878-49.002 78.87-34.97 177.626 31.293 220.135 28.434 18.249 63.516 23.917 98.748 15.956 43.948-9.933 84.167-39.769 110.328-81.878a199 199 0 0 0 15.131-29.598M85.36-16.456a198.7 198.7 0 0 1 15.057-29.462c26.031-41.884 66.022-71.572 109.7-81.43 34.982-7.896 69.791-2.285 98.006 15.819 57.78 37.075 75.541 117.256 46.049 189.328a199 199 0 0 1-15.057 29.461c-26.031 41.885-66.023 71.572-109.7 81.431-34.983 7.896-69.776 2.291-97.991-15.813-57.78-37.074-75.54-117.256-46.049-189.328z"/><path fill="url(#t)" d="M364.34 87.079c32.472-79.355 4.154-169.321-67.419-206.187-76.007-39.161-172.463-3.81-215.004 78.78C61.304-.322 56.267 44.67 67.715 86.367c11.456 41.719 38.056 75.13 74.88 94.108 36.824 18.977 79.475 21.222 120.098 6.334 40.6-14.878 74.314-45.116 94.921-85.107a181 181 0 0 0 6.741-14.618zM76.016-25.182a190 190 0 0 1 6.773-14.697c42.308-82.11 138.164-117.262 213.682-78.357 71.111 36.64 99.22 126.076 66.964 204.945-2 4.887-4.225 9.737-6.709 14.538-20.5 39.776-54.012 69.837-94.379 84.643-40.361 14.791-82.72 12.555-119.303-6.286s-62.99-52.045-74.372-93.493c-10.012-36.423-7.35-75.384 7.344-111.293"/><path fill="url(#u)" d="M375.713 94.501c35.187-85.987-6.145-184.577-92.132-219.764-85.987-35.186-184.577 6.146-219.764 92.133s6.145 184.577 92.133 219.764c85.987 35.187 184.577-6.146 219.763-92.133M64.722-32.759c34.979-85.48 132.987-126.569 218.466-91.59S409.756 8.639 374.777 94.118 241.79 220.686 156.31 185.707C70.831 150.728 29.743 52.72 64.722-32.76"/></g><defs><linearGradient id="a" x1="194.171" x2="277.4" y1="-80.277" y2="121.772" gradientUnits="userSpaceOnUse"><stop stop-color="#949494"/><stop offset="1" stop-color="#999"/></linearGradient><linearGradient id="b" x1="195.746" x2="287.818" y1="-86.488" y2="121.345" gradientUnits="userSpaceOnUse"><stop stop-color="#949494"/><stop offset="1" stop-color="#999"/></linearGradient><linearGradient id="c" x1="197.542" x2="298.444" y1="-92.669" y2="119.916" gradientUnits="userSpaceOnUse"><stop stop-color="#949494"/><stop offset="1" stop-color="#999"/></linearGradient><linearGradient id="d" x1="199.488" x2="308.997" y1="-98.78" y2="117.621" gradientUnits="userSpaceOnUse"><stop stop-color="#949494"/><stop offset="1" stop-color="#999"/></linearGradient><linearGradient id="e" x1="201.627" x2="319.473" y1="-104.751" y2="114.323" gradientUnits="userSpaceOnUse"><stop stop-color="#949494"/><stop offset="1" stop-color="#999"/></linearGradient><linearGradient id="f" x1="203.821" x2="329.412" y1="-110.48" y2="110.331" gradientUnits="userSpaceOnUse"><stop stop-color="#949494"/><stop offset="1" stop-color="#999"/></linearGradient><linearGradient id="g" x1="206.081" x2="339.003" y1="-116.074" y2="105.756" gradientUnits="userSpaceOnUse"><stop stop-color="#949494"/><stop offset="1" stop-color="#999"/></linearGradient><linearGradient id="h" x1="208.282" x2="347.906" y1="-121.486" y2="100.914" gradientUnits="userSpaceOnUse"><stop stop-color="#949494"/><stop offset="1" stop-color="#999"/></linearGradient><linearGradient id="i" x1="210.318" x2="355.957" y1="-126.62" y2="96.199" gradientUnits="userSpaceOnUse"><stop stop-color="#949494"/><stop offset="1" stop-color="#999"/></linearGradient><linearGradient id="j" x1="212.121" x2="363.164" y1="-131.508" y2="91.997" gradientUnits="userSpaceOnUse"><stop stop-color="#949494"/><stop offset="1" stop-color="#999"/></linearGradient><linearGradient id="k" x1="213.505" x2="369.38" y1="-136.136" y2="88.845" gradientUnits="userSpaceOnUse"><stop stop-color="#949494"/><stop offset="1" stop-color="#999"/></linearGradient><linearGradient id="l" x1="214.305" x2="374.536" y1="-140.524" y2="87.346" gradientUnits="userSpaceOnUse"><stop stop-color="#949494"/><stop offset="1" stop-color="#999"/></linearGradient><linearGradient id="m" x1="214.396" x2="378.591" y1="-144.713" y2="88.01" gradientUnits="userSpaceOnUse"><stop stop-color="#949494"/><stop offset="1" stop-color="#999"/></linearGradient><linearGradient id="n" x1="213.609" x2="381.38" y1="-148.701" y2="91.389" gradientUnits="userSpaceOnUse"><stop stop-color="#949494"/><stop offset="1" stop-color="#999"/></linearGradient><linearGradient id="o" x1="211.813" x2="382.682" y1="-152.53" y2="97.86" gradientUnits="userSpaceOnUse"><stop stop-color="#949494"/><stop offset="1" stop-color="#999"/></linearGradient><linearGradient id="p" x1="208.873" x2="382.087" y1="-156.228" y2="107.568" gradientUnits="userSpaceOnUse"><stop stop-color="#949494"/><stop offset="1" stop-color="#999"/></linearGradient><linearGradient id="q" x1="204.764" x2="379.176" y1="-159.847" y2="120.382" gradientUnits="userSpaceOnUse"><stop stop-color="#949494"/><stop offset="1" stop-color="#999"/></linearGradient><linearGradient id="r" x1="199.449" x2="373.436" y1="-163.325" y2="135.917" gradientUnits="userSpaceOnUse"><stop stop-color="#949494"/><stop offset="1" stop-color="#999"/></linearGradient><linearGradient id="s" x1="192.98" x2="364.382" y1="-166.711" y2="153.452" gradientUnits="userSpaceOnUse"><stop stop-color="#949494"/><stop offset="1" stop-color="#999"/></linearGradient><linearGradient id="t" x1="185.424" x2="352.022" y1="-170.205" y2="172.048" gradientUnits="userSpaceOnUse"><stop stop-color="#949494"/><stop offset="1" stop-color="#999"/></linearGradient><linearGradient id="u" x1="176.898" x2="336.317" y1="-173.798" y2="190.775" gradientUnits="userSpaceOnUse"><stop stop-color="#949494"/><stop offset="1" stop-color="#999"/></linearGradient></defs></svg>