<svg xmlns="http://www.w3.org/2000/svg" width="400" height="318" fill="none"><g clip-path="url(#a)" opacity=".44"><g opacity=".9"><g opacity=".1" style="mix-blend-mode:multiply"><path fill="url(#b)" d="m387.838 207.751-27.268-49.988-27.039-50.075L279.857 7.256l-53.136-100.72-26.379-50.459-26.109-50.603 27.295 49.973 27.026 50.116L282.256 5.982l53.108 100.733 26.365 50.433z"/><path fill="url(#c)" d="m394.745 197.984-28.376-46.282-28.121-46.452-55.918-93.075-55.366-93.403-27.474-46.796-27.26-46.978 28.376 46.282 28.148 46.437 55.891 93.09 55.366 93.403 27.488 46.823z"/><path fill="url(#d)" d="m401.68 188.208-29.483-42.577-29.242-42.773-58.135-85.732-57.597-86.088-28.624-43.17-28.396-43.327 29.483 42.576 29.243 42.773 58.134 85.733 57.597 86.087 28.624 43.171z"/><path fill="url(#e)" d="m408.589 178.44-30.564-38.885-30.349-39.067-60.338-78.431L227.483-56.7l-29.775-39.546-29.505-39.69 30.537 38.9 30.349 39.067 60.366 78.417 59.842 78.798 29.76 39.519z"/><path fill="url(#f)" d="m415.497 168.678-31.644-35.194-31.444-35.403-62.582-71.073-62.099-71.468-30.87-35.882-30.682-36.051 31.644 35.194 31.444 35.403 62.582 71.074 62.1 71.468 30.869 35.881z"/><path fill="url(#g)" d="m422.398 158.914-32.724-31.502-32.539-31.739-64.784-63.703-64.345-64.18-32.032-32.215-31.806-32.44 32.724 31.502 32.525 31.712 64.798 63.73 64.345 64.18 32.006 32.229z"/><path fill="url(#h)" d="m429.338 149.136-33.805-27.811-33.647-28.033-66.987-56.402-66.603-56.849-33.183-28.591-32.968-28.774 33.804 27.81 33.647 28.034 66.973 56.375 66.603 56.848 33.156 28.606z"/><path fill="url(#i)" d="m436.249 139.367-34.885-24.119-34.742-24.369-69.189-49.032-68.848-49.56-34.319-24.94-34.161-25.162 34.9 24.147 34.727 24.342 69.204 49.059 68.86 49.518 34.292 24.954z"/><path fill="url(#j)" d="m443.154 129.604-35.939-20.443-35.822-20.677-71.42-41.716-71.106-42.23-35.454-21.287-35.311-21.538 35.938 20.442 35.822 20.678 71.42 41.716 71.106 42.229 35.455 21.288z"/><path fill="url(#k)" d="m450.062 119.839-36.992-16.765-36.902-16.986-73.637-34.373-73.378-34.926-36.59-17.636-36.489-17.9 37.019 16.752 36.902 16.986 73.61 34.387 73.378 34.926 36.591 17.637z"/><path fill="url(#l)" d="m456.998 110.058-38.073-13.074-37.996-13.322-75.827-27.044-75.635-27.596-37.741-14.012L154.074.777l38.073 13.074 37.996 13.322 75.827 27.044 75.608 27.61 37.754 13.97z"/><path fill="url(#m)" d="m463.906 100.295-39.126-9.396-39.091-9.658-78.016-19.715L229.78 41.26l-38.904-10.346-38.829-10.594 39.153 9.383 39.05 9.644 78.03 19.743 77.893 20.266 38.905 10.346z"/><path fill="url(#n)" d="m470.807 90.532-40.193-5.747-40.145-5.98-80.233-12.373-80.165-12.962-40.04-6.694-39.992-6.928 40.179 5.72 40.145 5.98 80.247 12.4 80.151 12.935 40.04 6.694z"/><path fill="url(#o)" d="m477.716 80.768-41.247-2.07-41.24-2.316-82.436-5.071-82.423-5.632-41.204-3.028-41.154-3.262 41.233 2.042 41.239 2.316 82.463 5.057 82.397 5.646 41.203 3.029z"/><path fill="url(#p)" d="m484.654 70.987-42.342 1.595-42.307 1.334-84.653 2.272-84.681 1.698-42.339.624-42.332.377 42.315-1.58 42.308-1.335 84.652-2.272 84.681-1.698 42.339-.623z"/><path fill="url(#q)" d="m491.563 61.221-43.383 5.23-43.429 5.013-86.857 9.574-86.938 9.029-43.461 4.302-43.522 4.057 43.382-5.23 43.43-5.013 86.842-9.601 86.926-8.987 43.488-4.317z"/><path fill="url(#r)" d="m498.472 51.456-44.451 8.88L409.524 69l-89.073 16.917-89.196 16.358-44.624 7.968-44.658 7.709 44.436-8.907 44.511-8.636 89.073-16.917 89.169-16.344 44.625-7.968z"/><path fill="url(#s)" d="m505.38 41.69-45.518 12.53-45.607 12.3-91.262 24.245-91.454 23.689-45.76 11.62-45.834 11.416 45.531-12.572 45.579-12.285L322.359 88.4l91.427-23.675 45.773-11.66z"/><path fill="url(#t)" d="m512.315 31.913-46.613 16.195-46.701 15.964-93.507 31.534-93.671 31.033-46.908 15.312-46.997 15.082 46.599-16.222 46.701-15.964 93.507-31.534 93.685-31.005 46.909-15.313z"/><path fill="url(#u)" d="m519.202 22.122-47.708 19.86-47.769 19.614-95.723 38.877-95.943 38.336-48.031 18.991-48.118 18.761 47.681-19.845 47.796-19.629 95.697-38.863 95.942-38.335 48.058-19.006z"/><path fill="url(#v)" d="m526.11 12.36-48.775 23.51-48.878 23.25-97.955 46.194-98.159 45.679-49.193 22.657-49.267 22.454 48.775-23.51 48.905-23.266 97.928-46.179 98.186-45.692 49.166-22.643z"/><path fill="url(#w)" d="m533.024 2.592-49.858 27.132-49.999 26.93-100.159 53.495-100.416 53.009-50.316 26.336-50.403 26.105 49.858-27.132 50-26.93 100.173-53.468 100.416-53.01 50.301-26.362z"/></g><path fill="url(#x)" d="m383.323 207.309-27.269-49.987-27.053-50.102L275.327 6.787 222.206-93.905l-26.352-50.474-26.137-50.589 27.296 49.974 27.052 50.102L277.726 5.513l53.108 100.734 26.379 50.46z"/><path fill="url(#y)" d="m390.256 197.528-28.376-46.281-28.147-46.438-55.918-93.076-55.366-93.403-27.489-46.822-27.245-46.951 28.376 46.281 28.147 46.438 55.891 93.09 55.366 93.403 27.515 46.808z"/><path fill="url(#z)" d="m397.164 187.766-29.47-42.617-29.255-42.732-58.107-85.747-57.624-86.073-28.625-43.171-28.395-43.326 29.483 42.576 29.228 42.746 58.148 85.76 57.597 86.087 28.624 43.171z"/><path fill="url(#A)" d="m404.073 177.999-30.578-38.912-30.322-39.082-60.351-78.39-59.869-78.783-29.733-39.534-29.532-39.675 30.563 38.885 30.35 39.067 60.338 78.431 59.855 78.757 29.733 39.534z"/><path fill="url(#B)" d="m410.984 168.236-31.658-35.22-31.43-35.377-62.555-71.087-62.1-71.468-30.896-35.868-30.697-36.077 31.659 35.22 31.471 35.389 62.54 71.06 62.1 71.469 30.911 35.894z"/><path fill="url(#C)" d="m417.912 158.458-32.738-31.529-32.552-31.697-64.771-63.745-64.358-64.138-32.02-32.257-31.832-32.426 32.738 31.53 32.525 31.71 64.798 63.732 64.331 64.152 32.047 32.242z"/><path fill="url(#D)" d="m424.821 148.696-33.819-27.838-33.647-28.033-66.973-56.375-66.603-56.849-33.183-28.59-32.983-28.802 33.819 27.838 33.633 28.006 66.987 56.402 66.603 56.849 33.183 28.591z"/><path fill="url(#E)" d="m431.73 138.928-34.9-24.146-34.7-24.356-69.231-49.045L224.066-8.15l-34.319-24.94-34.134-25.177 34.858 24.134 34.742 24.369 69.189 49.032 68.875 49.545 34.292 24.954z"/><path fill="url(#F)" d="m438.638 129.162-35.953-20.469-35.807-20.65-71.421-41.716-71.105-42.23-35.455-21.288-35.311-21.537 35.965 20.427 35.795 20.692 71.421 41.716 71.105 42.23 35.455 21.288z"/><path fill="url(#G)" d="m445.578 119.382-37.034-16.778-36.902-16.986-73.636-34.373-73.364-34.899-36.605-17.663-36.447-17.886 36.992 16.765 36.902 16.986 73.637 34.373 73.378 34.926 36.59 17.637z"/><path fill="url(#H)" d="m452.482 109.616-38.087-13.1-37.982-13.295-75.826-27.045-75.636-27.596L187.21 14.57 149.559.336l38.072 13.074 37.983 13.295 75.826 27.044 75.65 27.623 37.727 13.984z"/><path fill="url(#I)" d="m459.379 99.827-39.126-9.397-39.05-9.645-78.043-19.701-77.908-20.293-38.889-10.319-38.843-10.62 39.167 9.409 39.05 9.645 78.043 19.701 77.88 20.307 38.89 10.319z"/><path fill="url(#J)" d="m466.28 90.063-40.179-5.72-40.145-5.98-80.247-12.4-80.151-12.935-40.04-6.694-40.006-6.955 40.193 5.747 40.145 5.98 80.233 12.373 80.165 12.962 40.04 6.694z"/><path fill="url(#K)" d="m473.215 80.286-41.274-2.055-41.213-2.33-82.448-5.03-82.423-5.632-41.177-3.043-41.196-3.274 41.274 2.055 41.213 2.33 82.463 5.057 82.423 5.632 41.162 3.016z"/><path fill="url(#L)" d="m480.124 70.519-42.3 1.607-42.335 1.349-84.652 2.272-84.654 1.684-42.367.637-42.332.377 42.301-1.607 42.349-1.321 84.652-2.272 84.654-1.684 42.325-.65z"/><path fill="url(#M)" d="m487.033 60.753-43.369 5.257-43.402 4.998-86.883 9.589-86.912 9.014-43.488 4.316-43.522 4.057 43.395-5.271 43.403-4.999 86.856-9.573 86.939-9.029 43.461-4.302z"/><path fill="url(#N)" d="m493.942 50.987-44.437 8.908-44.511 8.635-89.073 16.917-89.169 16.345-44.637 8.009-44.658 7.709 44.436-8.908 44.497-8.662 89.087-16.89 89.17-16.345 44.651-7.982z"/><path fill="url(#O)" d="m500.877 41.207-45.531 12.572-45.606 12.3-91.277 24.218-91.454 23.689-45.746 11.647-45.833 11.416 45.531-12.572 45.606-12.3 91.276-24.218 91.428-23.675 45.772-11.661z"/><path fill="url(#P)" d="m507.781 31.447-46.614 16.195-46.7 15.964-93.494 31.561-93.684 31.005-46.909 15.313-46.97 15.068 46.613-16.195 46.674-15.95 93.508-31.534 93.685-31.006 46.894-15.34z"/><path fill="url(#Q)" d="m514.689 21.68-47.681 19.845-47.795 19.629-95.739 38.85-95.901 38.349-48.058 19.005-48.132 18.734 47.681-19.845 47.81-19.602 95.724-38.877 95.915-38.321 48.058-19.006z"/><path fill="url(#R)" d="m521.602 11.917-48.79 23.482-48.864 23.279-97.954 46.193-98.174 45.652-49.152 22.669-49.281 22.427 48.763-23.468 48.89-23.293 97.942-46.152 98.186-45.692 49.152-22.67z"/><path fill="url(#S)" d="M528.534 2.136 478.65 29.282l-50 26.93-100.159 53.496-100.416 53.008-50.289 26.322-50.43 26.119 49.885-27.146 49.973-26.916L327.372 107.6l100.417-53.009 50.315-26.336z"/></g></g><defs><linearGradient id="b" x1="174.246" x2="387.852" y1="-194.533" y2="207.744" gradientUnits="userSpaceOnUse"><stop stop-color="#CFCFCF"/><stop offset="1" stop-color="#B0B0B0"/></linearGradient><linearGradient id="c" x1="181.771" x2="385.204" y1="-180.068" y2="203.05" gradientUnits="userSpaceOnUse"><stop stop-color="#CFCFCF"/><stop offset="1" stop-color="#B0B0B0"/></linearGradient><linearGradient id="d" x1="189.312" x2="382.571" y1="-165.606" y2="198.354" gradientUnits="userSpaceOnUse"><stop stop-color="#CFCFCF"/><stop offset="1" stop-color="#B0B0B0"/></linearGradient><linearGradient id="e" x1="196.853" x2="379.939" y1="-151.148" y2="193.653" gradientUnits="userSpaceOnUse"><stop stop-color="#CFCFCF"/><stop offset="1" stop-color="#B0B0B0"/></linearGradient><linearGradient id="f" x1="204.38" x2="377.293" y1="-136.679" y2="188.964" gradientUnits="userSpaceOnUse"><stop stop-color="#CFCFCF"/><stop offset="1" stop-color="#B0B0B0"/></linearGradient><linearGradient id="g" x1="211.913" x2="374.653" y1="-122.217" y2="184.266" gradientUnits="userSpaceOnUse"><stop stop-color="#CFCFCF"/><stop offset="1" stop-color="#B0B0B0"/></linearGradient><linearGradient id="h" x1="219.458" x2="372.025" y1="-107.757" y2="179.568" gradientUnits="userSpaceOnUse"><stop stop-color="#CFCFCF"/><stop offset="1" stop-color="#B0B0B0"/></linearGradient><linearGradient id="i" x1="226.973" x2="369.381" y1="-93.32" y2="174.873" gradientUnits="userSpaceOnUse"><stop stop-color="#CFCFCF"/><stop offset="1" stop-color="#B0B0B0"/></linearGradient><linearGradient id="j" x1="234.51" x2="366.745" y1="-78.859" y2="170.176" gradientUnits="userSpaceOnUse"><stop stop-color="#CFCFCF"/><stop offset="1" stop-color="#B0B0B0"/></linearGradient><linearGradient id="k" x1="242.037" x2="364.099" y1="-64.392" y2="165.485" gradientUnits="userSpaceOnUse"><stop stop-color="#CFCFCF"/><stop offset="1" stop-color="#B0B0B0"/></linearGradient><linearGradient id="l" x1="249.591" x2="361.481" y1="-49.941" y2="160.776" gradientUnits="userSpaceOnUse"><stop stop-color="#CFCFCF"/><stop offset="1" stop-color="#B0B0B0"/></linearGradient><linearGradient id="m" x1="257.119" x2="358.835" y1="-35.472" y2="156.087" gradientUnits="userSpaceOnUse"><stop stop-color="#CFCFCF"/><stop offset="1" stop-color="#B0B0B0"/></linearGradient><linearGradient id="n" x1="264.652" x2="356.195" y1="-21.011" y2="151.39" gradientUnits="userSpaceOnUse"><stop stop-color="#CFCFCF"/><stop offset="1" stop-color="#B0B0B0"/></linearGradient><linearGradient id="o" x1="272.179" x2="353.549" y1="-6.543" y2="146.699" gradientUnits="userSpaceOnUse"><stop stop-color="#CFCFCF"/><stop offset="1" stop-color="#B0B0B0"/></linearGradient><linearGradient id="p" x1="279.721" x2="350.933" y1="7.882" y2="141.992" gradientUnits="userSpaceOnUse"><stop stop-color="#CFCFCF"/><stop offset="1" stop-color="#B0B0B0"/></linearGradient><linearGradient id="q" x1="287.249" x2="348.287" y1="22.348" y2="137.299" gradientUnits="userSpaceOnUse"><stop stop-color="#CFCFCF"/><stop offset="1" stop-color="#B0B0B0"/></linearGradient><linearGradient id="r" x1="294.789" x2="345.655" y1="36.807" y2="132.6" gradientUnits="userSpaceOnUse"><stop stop-color="#CFCFCF"/><stop offset="1" stop-color="#B0B0B0"/></linearGradient><linearGradient id="s" x1="302.317" x2="343.009" y1="51.273" y2="127.907" gradientUnits="userSpaceOnUse"><stop stop-color="#CFCFCF"/><stop offset="1" stop-color="#B0B0B0"/></linearGradient><linearGradient id="t" x1="309.857" x2="340.376" y1="65.735" y2="123.211" gradientUnits="userSpaceOnUse"><stop stop-color="#CFCFCF"/><stop offset="1" stop-color="#B0B0B0"/></linearGradient><linearGradient id="u" x1="317.39" x2="337.722" y1="80.196" y2="118.487" gradientUnits="userSpaceOnUse"><stop stop-color="#CFCFCF"/><stop offset="1" stop-color="#B0B0B0"/></linearGradient><linearGradient id="v" x1="324.917" x2="335.076" y1="94.666" y2="113.798" gradientUnits="userSpaceOnUse"><stop stop-color="#CFCFCF"/><stop offset="1" stop-color="#B0B0B0"/></linearGradient><linearGradient id="w" x1="331.904" x2="333.008" y1="108.069" y2="110.149" gradientUnits="userSpaceOnUse"><stop stop-color="#CFCFCF"/><stop offset="1" stop-color="#B0B0B0"/></linearGradient><linearGradient id="x" x1="169.731" x2="383.336" y1="-194.975" y2="207.302" gradientUnits="userSpaceOnUse"><stop stop-color="#CFCFCF"/><stop offset="1" stop-color="#B0B0B0"/></linearGradient><linearGradient id="y" x1="177.269" x2="380.702" y1="-180.517" y2="202.602" gradientUnits="userSpaceOnUse"><stop stop-color="#CFCFCF"/><stop offset="1" stop-color="#B0B0B0"/></linearGradient><linearGradient id="z" x1="184.796" x2="378.056" y1="-166.047" y2="197.913" gradientUnits="userSpaceOnUse"><stop stop-color="#CFCFCF"/><stop offset="1" stop-color="#B0B0B0"/></linearGradient><linearGradient id="A" x1="192.337" x2="375.424" y1="-151.59" y2="193.211" gradientUnits="userSpaceOnUse"><stop stop-color="#CFCFCF"/><stop offset="1" stop-color="#B0B0B0"/></linearGradient><linearGradient id="B" x1="199.853" x2="372.78" y1="-137.147" y2="188.522" gradientUnits="userSpaceOnUse"><stop stop-color="#CFCFCF"/><stop offset="1" stop-color="#B0B0B0"/></linearGradient><linearGradient id="C" x1="207.399" x2="370.154" y1="-122.693" y2="183.818" gradientUnits="userSpaceOnUse"><stop stop-color="#CFCFCF"/><stop offset="1" stop-color="#B0B0B0"/></linearGradient><linearGradient id="D" x1="214.926" x2="367.508" y1="-108.224" y2="179.129" gradientUnits="userSpaceOnUse"><stop stop-color="#CFCFCF"/><stop offset="1" stop-color="#B0B0B0"/></linearGradient><linearGradient id="E" x1="222.467" x2="364.876" y1="-93.766" y2="174.427" gradientUnits="userSpaceOnUse"><stop stop-color="#CFCFCF"/><stop offset="1" stop-color="#B0B0B0"/></linearGradient><linearGradient id="F" x1="229.994" x2="362.23" y1="-79.301" y2="169.734" gradientUnits="userSpaceOnUse"><stop stop-color="#CFCFCF"/><stop offset="1" stop-color="#B0B0B0"/></linearGradient><linearGradient id="G" x1="237.553" x2="359.615" y1="-64.849" y2="165.028" gradientUnits="userSpaceOnUse"><stop stop-color="#CFCFCF"/><stop offset="1" stop-color="#B0B0B0"/></linearGradient><linearGradient id="H" x1="245.076" x2="356.965" y1="-50.383" y2="160.335" gradientUnits="userSpaceOnUse"><stop stop-color="#CFCFCF"/><stop offset="1" stop-color="#B0B0B0"/></linearGradient><linearGradient id="I" x1="252.591" x2="354.307" y1="-35.941" y2="155.619" gradientUnits="userSpaceOnUse"><stop stop-color="#CFCFCF"/><stop offset="1" stop-color="#B0B0B0"/></linearGradient><linearGradient id="J" x1="260.124" x2="351.667" y1="-21.479" y2="150.921" gradientUnits="userSpaceOnUse"><stop stop-color="#CFCFCF"/><stop offset="1" stop-color="#B0B0B0"/></linearGradient><linearGradient id="K" x1="267.665" x2="349.035" y1="-7.017" y2="146.225" gradientUnits="userSpaceOnUse"><stop stop-color="#CFCFCF"/><stop offset="1" stop-color="#B0B0B0"/></linearGradient><linearGradient id="L" x1="275.206" x2="346.403" y1="7.44" y2="141.524" gradientUnits="userSpaceOnUse"><stop stop-color="#CFCFCF"/><stop offset="1" stop-color="#B0B0B0"/></linearGradient><linearGradient id="M" x1="282.733" x2="343.757" y1="21.906" y2="136.831" gradientUnits="userSpaceOnUse"><stop stop-color="#CFCFCF"/><stop offset="1" stop-color="#B0B0B0"/></linearGradient><linearGradient id="N" x1="290.274" x2="341.125" y1="36.365" y2="132.132" gradientUnits="userSpaceOnUse"><stop stop-color="#CFCFCF"/><stop offset="1" stop-color="#B0B0B0"/></linearGradient><linearGradient id="O" x1="297.814" x2="338.492" y1="50.824" y2="127.432" gradientUnits="userSpaceOnUse"><stop stop-color="#CFCFCF"/><stop offset="1" stop-color="#B0B0B0"/></linearGradient><linearGradient id="P" x1="305.336" x2="335.855" y1="65.262" y2="122.738" gradientUnits="userSpaceOnUse"><stop stop-color="#CFCFCF"/><stop offset="1" stop-color="#B0B0B0"/></linearGradient><linearGradient id="Q" x1="312.863" x2="333.209" y1="79.728" y2="118.045" gradientUnits="userSpaceOnUse"><stop stop-color="#CFCFCF"/><stop offset="1" stop-color="#B0B0B0"/></linearGradient><linearGradient id="R" x1="320.408" x2="330.581" y1="94.189" y2="113.347" gradientUnits="userSpaceOnUse"><stop stop-color="#CFCFCF"/><stop offset="1" stop-color="#B0B0B0"/></linearGradient><linearGradient id="S" x1="327.386" x2="328.505" y1="107.593" y2="109.7" gradientUnits="userSpaceOnUse"><stop stop-color="#CFCFCF"/><stop offset="1" stop-color="#B0B0B0"/></linearGradient><clipPath id="a"><path fill="#fff" d="M-33.203-87.219 371.29-302l214.782 404.493-404.493 214.782z"/></clipPath></defs></svg>