<svg xmlns="http://www.w3.org/2000/svg" width="210" height="210" fill="none"><g clip-path="url(#a)" opacity=".9"><g opacity=".1" style="mix-blend-mode:multiply"><path fill="url(#b)" d="m107.084 210-.294-26.108-.182-26.094-.139-52.216.139-52.216.168-26.108.308-26.108.308 26.108.168 26.108.154 52.216-.154 52.216-.168 26.094z"/><path fill="url(#c)" d="m111.981 207.53-1.539-24.845-1.399-24.86-2.631-49.718-2.337-49.733-1.063-24.86-.938-24.887 1.539 24.845 1.414 24.86 2.616 49.718 2.337 49.733 1.063 24.874z"/><path fill="url(#d)" d="m116.892 205.062-2.784-23.583-2.645-23.611-5.107-47.221-4.814-47.25-2.308-23.639-2.183-23.653 2.784 23.583L102.48 63.3l5.107 47.222 4.814 47.249 2.308 23.639z"/><path fill="url(#e)" d="m121.791 202.592-4.016-22.32-3.89-22.348-7.57-44.739-7.304-44.766L95.457 46l-3.414-22.418 4.002 22.32 3.89 22.348 7.584 44.739 7.29 44.78 3.554 22.405z"/><path fill="url(#f)" d="m126.688 200.124-5.247-21.058-5.121-21.099-10.061-42.241-9.78-42.298-4.786-21.17-4.674-21.197 5.248 21.057 5.121 21.1 10.061 42.241 9.78 42.297 4.786 21.17z"/><path fill="url(#g)" d="m131.583 197.654-6.478-19.795-6.353-19.851-12.537-39.73L93.957 78.45l-6.044-19.936-5.905-19.977 6.478 19.795 6.353 19.837 12.537 39.744 12.258 39.828 6.031 19.936z"/><path fill="url(#h)" d="m136.495 195.186-7.71-18.532-7.598-18.589-15-37.247-14.748-37.345-7.29-18.715-7.165-18.742 7.71 18.532 7.598 18.588 15 37.233 14.748 37.345 7.276 18.715z"/><path fill="url(#i)" d="m141.396 192.716-8.941-17.269-8.83-17.34-17.476-34.736-17.225-34.876-8.536-17.48-8.423-17.537 8.941 17.284 8.83 17.326 17.476 34.75 17.239 34.862 8.521 17.48z"/><path fill="url(#j)" d="m146.291 190.246-10.159-16.007-10.06-16.077-19.954-32.253-19.715-32.393-9.781-16.245-9.669-16.316 10.159 16.007 10.06 16.077 19.954 32.253 19.715 32.393 9.781 16.246z"/><path fill="url(#k)" d="m151.188 187.778-11.376-14.744-11.292-14.815-22.43-29.755L83.884 98.54 72.858 83.529 61.93 68.434l11.39 14.744 11.292 14.815 22.416 29.755 22.206 29.924 11.026 15.011z"/><path fill="url(#l)" d="m156.101 185.308-12.607-13.482-12.524-13.566-24.892-27.258-24.697-27.441-12.272-13.79-12.187-13.86 12.607 13.481 12.523 13.566 24.893 27.258 24.683 27.441 12.285 13.777z"/><path fill="url(#m)" d="m160.998 182.84-13.824-12.219-13.755-12.318-27.355-24.761-27.188-24.957-13.53-12.556-13.448-12.64 13.84 12.219 13.74 12.303 27.355 24.776 27.188 24.957 13.53 12.556z"/><path fill="url(#n)" d="m165.893 180.37-15.042-10.97-14.972-11.055-29.832-22.264-29.678-22.489-14.776-11.321-14.706-11.406 15.042 10.957L76.9 112.877l29.832 22.278 29.678 22.474 14.776 11.322z"/><path fill="url(#o)" d="m170.791 177.902-16.26-9.708-16.203-9.806-32.295-19.781-32.169-20.005-16.035-10.087-15.966-10.171 16.26 9.694 16.203 9.806 32.309 19.781 32.155 20.005 16.035 10.087z"/><path fill="url(#p)" d="m175.704 175.433-17.491-8.46-17.421-8.558-34.771-17.283-34.66-17.523-17.28-8.852-17.225-8.95 17.476 8.459 17.421 8.558 34.771 17.284 34.66 17.522 17.281 8.852z"/><path fill="url(#q)" d="m180.601 172.963-18.694-7.211-18.666-7.309-37.235-14.801-37.15-15.039-18.526-7.604-18.498-7.716 18.694 7.211 18.666 7.309 37.234 14.787 37.136 15.053 18.541 7.604z"/><path fill="url(#r)" d="m185.5 170.494-19.912-5.962-19.883-6.06-39.711-12.304-39.64-12.556-19.786-6.369-19.744-6.481 19.912 5.948 19.883 6.075 39.711 12.303 39.627 12.556 19.785 6.369z"/><path fill="url(#s)" d="m190.397 168.024-21.129-4.713-21.115-4.826-42.173-9.806-42.132-10.073-21.03-5.135-21.017-5.233 21.143 4.7 21.1 4.826 42.188 9.82 42.117 10.073 21.045 5.121z"/><path fill="url(#t)" d="m195.308 165.556-22.36-3.465-22.346-3.577-44.65-7.337-44.608-7.576-22.29-3.886-22.277-3.998 22.36 3.451 22.347 3.577 44.65 7.337 44.608 7.59 22.29 3.886z"/><path fill="url(#u)" d="m200.203 163.072-23.591-2.216-23.564-2.329-47.127-4.84-47.099-5.107-23.535-2.637-23.521-2.75 23.577 2.217 23.577 2.329 47.113 4.84 47.099 5.106 23.55 2.638z"/><path fill="url(#v)" d="m205.1 160.604-24.808-.968-24.795-1.094-49.604-2.357-49.575-2.609-24.795-1.403-24.78-1.501 24.808.968 24.809 1.094 49.589 2.357 49.59 2.609 24.781 1.403z"/><path fill="url(#w)" d="m209.999 158.135-26.026.266-26.04.155-52.066.126-52.066-.126-26.04-.155-26.027-.266 26.027-.267 26.04-.154 52.066-.112 52.066.126 26.04.14z"/></g><path fill="url(#x)" d="m105.35 208.85-.294-26.108-.182-26.108-.14-52.216.14-52.202.182-26.108L105.35 0l.308 26.108.182 26.108.139 52.202-.153 52.216-.168 26.108z"/><path fill="url(#y)" d="m110.261 206.38-1.54-24.846-1.413-24.859-2.63-49.719-2.337-49.733-1.064-24.873-.937-24.873 1.539 24.845 1.413 24.86 2.617 49.718 2.337 49.733 1.077 24.873z"/><path fill="url(#z)" d="m115.158 203.912-2.771-23.597-2.658-23.597-5.094-47.222-4.827-47.25-2.309-23.638-2.183-23.653 2.785 23.583 2.645 23.597 5.107 47.235 4.813 47.25 2.309 23.639z"/><path fill="url(#A)" d="m120.057 201.442-4.016-22.335-3.876-22.348-7.584-44.724-7.304-44.78-3.54-22.405-3.428-22.418 4.016 22.32 3.89 22.348 7.569 44.738 7.304 44.767 3.541 22.404z"/><path fill="url(#B)" d="m124.954 198.974-5.247-21.072-5.121-21.085-10.047-42.242-9.78-42.297-4.8-21.17-4.674-21.211 5.247 21.071 5.136 21.1 10.046 42.227 9.781 42.297 4.799 21.184z"/><path fill="url(#C)" d="m129.863 196.504-6.479-19.809-6.366-19.837-12.523-39.744L92.223 77.3l-6.03-19.95-5.92-19.977 6.479 19.809 6.353 19.837 12.537 39.744 12.257 39.814 6.045 19.95z"/><path fill="url(#D)" d="m134.76 194.036-7.71-18.546-7.598-18.589-15-37.233-14.748-37.345-7.29-18.715-7.164-18.756 7.71 18.546 7.598 18.574 15 37.247 14.748 37.345 7.29 18.715z"/><path fill="url(#E)" d="m139.659 191.566-8.941-17.284-8.815-17.326-17.491-34.749-17.225-34.862-8.535-17.48-8.41-17.537 8.927 17.27L88 86.938l17.476 34.735 17.239 34.876 8.522 17.481z"/><path fill="url(#F)" d="m144.556 189.096-10.158-16.021-10.061-16.063-19.953-32.253-19.716-32.393-9.78-16.246-9.67-16.315 10.173 16.007 10.047 16.077 19.953 32.253 19.716 32.393 9.781 16.245z"/><path fill="url(#G)" d="m149.469 186.628-11.39-14.759-11.292-14.814-22.43-29.756-22.206-29.91-11.026-15.025-10.914-15.08 11.376 14.744 11.292 14.814 22.43 29.756 22.206 29.924 11.026 15.011z"/><path fill="url(#H)" d="m154.367 184.158-12.608-13.496-12.523-13.552-24.893-27.258-24.696-27.441-12.272-13.79L55.188 74.76l12.607 13.482 12.523 13.552 24.893 27.258 24.697 27.455 12.271 13.776z"/><path fill="url(#I)" d="m159.264 181.676-13.825-12.219-13.74-12.304-27.37-24.761-27.187-24.971L63.61 94.879 50.164 82.225l13.839 12.233 13.74 12.303 27.37 24.761 27.173 24.972 13.531 12.542z"/><path fill="url(#J)" d="m164.159 179.206-15.042-10.956-14.972-11.055-29.832-22.278-29.678-22.475-14.777-11.321-14.706-11.42 15.042 10.971 14.972 11.055 29.832 22.264 29.679 22.488 14.776 11.322z"/><path fill="url(#K)" d="m169.07 176.738-16.273-9.708-16.19-9.806-32.308-19.767-32.17-20.005-16.02-10.087-15.98-10.185 16.273 9.708 16.19 9.806 32.308 19.781 32.169 20.005 16.022 10.073z"/><path fill="url(#L)" d="m173.969 174.268-17.476-8.445-17.435-8.558-34.772-17.284-34.645-17.522-17.295-8.852-17.225-8.951 17.477 8.446 17.435 8.571 34.771 17.284 34.646 17.522 17.28 8.839z"/><path fill="url(#M)" d="m178.866 171.798-18.694-7.197-18.652-7.309-37.248-14.8-37.136-15.04-18.54-7.603-18.498-7.716 18.708 7.197 18.652 7.309 37.234 14.8 37.15 15.039 18.526 7.604z"/><path fill="url(#N)" d="m183.765 169.33-19.911-5.948-19.884-6.075-39.71-12.303-39.627-12.556-19.8-6.355-19.743-6.482L45 125.56l19.884 6.06 39.71 12.318 39.627 12.556 19.8 6.369z"/><path fill="url(#O)" d="m188.676 166.86-21.142-4.7-21.115-4.826-42.173-9.82-42.132-10.073-21.03-5.12-21.018-5.233 21.143 4.7 21.115 4.826 42.173 9.82 42.118 10.073 21.045 5.12z"/><path fill="url(#P)" d="m193.571 164.392-22.36-3.465-22.346-3.577-44.65-7.323-44.608-7.59-22.29-3.886-22.262-3.998 22.36 3.465 22.332 3.577 44.65 7.337 44.608 7.59 22.29 3.872z"/><path fill="url(#Q)" d="m198.469 161.922-23.578-2.216-23.577-2.329-47.127-4.854-47.085-5.093-23.55-2.637-23.52-2.764 23.577 2.217 23.577 2.343 47.127 4.84 47.085 5.106 23.549 2.638z"/><path fill="url(#R)" d="m203.368 159.454-24.809-.982-24.795-1.08-49.603-2.357-49.576-2.623-24.78-1.389-24.782-1.515 24.795.982 24.809 1.08 49.59 2.371 49.589 2.609 24.781 1.389z"/><path fill="url(#S)" d="m208.279 156.984-26.04.267-26.04.154-52.067.127-52.066-.127-26.026-.154L0 156.984l26.04-.266 26.026-.154 52.066-.127 52.067.127 26.04.154z"/></g><defs><linearGradient id="b" x1="107.091" x2="107.091" y1="1.15" y2="210" gradientUnits="userSpaceOnUse"><stop stop-color="#CFCFCF"/><stop offset="1" stop-color="#B0B0B0"/></linearGradient><linearGradient id="c" x1="107.028" x2="107.028" y1="8.627" y2="207.53" gradientUnits="userSpaceOnUse"><stop stop-color="#CFCFCF"/><stop offset="1" stop-color="#B0B0B0"/></linearGradient><linearGradient id="d" x1="106.971" x2="106.971" y1="16.105" y2="205.062" gradientUnits="userSpaceOnUse"><stop stop-color="#CFCFCF"/><stop offset="1" stop-color="#B0B0B0"/></linearGradient><linearGradient id="e" x1="106.917" x2="106.917" y1="23.582" y2="202.592" gradientUnits="userSpaceOnUse"><stop stop-color="#CFCFCF"/><stop offset="1" stop-color="#B0B0B0"/></linearGradient><linearGradient id="f" x1="106.854" x2="106.854" y1="31.061" y2="200.124" gradientUnits="userSpaceOnUse"><stop stop-color="#CFCFCF"/><stop offset="1" stop-color="#B0B0B0"/></linearGradient><linearGradient id="g" x1="106.796" x2="106.796" y1="38.537" y2="197.654" gradientUnits="userSpaceOnUse"><stop stop-color="#CFCFCF"/><stop offset="1" stop-color="#B0B0B0"/></linearGradient><linearGradient id="h" x1="106.74" x2="106.74" y1="46.016" y2="195.186" gradientUnits="userSpaceOnUse"><stop stop-color="#CFCFCF"/><stop offset="1" stop-color="#B0B0B0"/></linearGradient><linearGradient id="i" x1="106.68" x2="106.68" y1="53.478" y2="192.716" gradientUnits="userSpaceOnUse"><stop stop-color="#CFCFCF"/><stop offset="1" stop-color="#B0B0B0"/></linearGradient><linearGradient id="j" x1="106.622" x2="106.622" y1="60.955" y2="190.246" gradientUnits="userSpaceOnUse"><stop stop-color="#CFCFCF"/><stop offset="1" stop-color="#B0B0B0"/></linearGradient><linearGradient id="k" x1="106.559" x2="106.559" y1="68.434" y2="187.778" gradientUnits="userSpaceOnUse"><stop stop-color="#CFCFCF"/><stop offset="1" stop-color="#B0B0B0"/></linearGradient><linearGradient id="l" x1="106.511" x2="106.511" y1="75.91" y2="185.308" gradientUnits="userSpaceOnUse"><stop stop-color="#CFCFCF"/><stop offset="1" stop-color="#B0B0B0"/></linearGradient><linearGradient id="m" x1="106.448" x2="106.448" y1="83.389" y2="182.84" gradientUnits="userSpaceOnUse"><stop stop-color="#CFCFCF"/><stop offset="1" stop-color="#B0B0B0"/></linearGradient><linearGradient id="n" x1="106.39" x2="106.39" y1="90.865" y2="180.37" gradientUnits="userSpaceOnUse"><stop stop-color="#CFCFCF"/><stop offset="1" stop-color="#B0B0B0"/></linearGradient><linearGradient id="o" x1="106.327" x2="106.327" y1="98.344" y2="177.902" gradientUnits="userSpaceOnUse"><stop stop-color="#CFCFCF"/><stop offset="1" stop-color="#B0B0B0"/></linearGradient><linearGradient id="p" x1="106.28" x2="106.28" y1="105.807" y2="175.433" gradientUnits="userSpaceOnUse"><stop stop-color="#CFCFCF"/><stop offset="1" stop-color="#B0B0B0"/></linearGradient><linearGradient id="q" x1="106.216" x2="106.216" y1="113.283" y2="172.963" gradientUnits="userSpaceOnUse"><stop stop-color="#CFCFCF"/><stop offset="1" stop-color="#B0B0B0"/></linearGradient><linearGradient id="r" x1="106.162" x2="106.162" y1="120.762" y2="170.494" gradientUnits="userSpaceOnUse"><stop stop-color="#CFCFCF"/><stop offset="1" stop-color="#B0B0B0"/></linearGradient><linearGradient id="s" x1="106.099" x2="106.099" y1="128.238" y2="168.024" gradientUnits="userSpaceOnUse"><stop stop-color="#CFCFCF"/><stop offset="1" stop-color="#B0B0B0"/></linearGradient><linearGradient id="t" x1="106.043" x2="106.043" y1="135.717" y2="165.556" gradientUnits="userSpaceOnUse"><stop stop-color="#CFCFCF"/><stop offset="1" stop-color="#B0B0B0"/></linearGradient><linearGradient id="u" x1="105.984" x2="105.984" y1="143.193" y2="163.072" gradientUnits="userSpaceOnUse"><stop stop-color="#CFCFCF"/><stop offset="1" stop-color="#B0B0B0"/></linearGradient><linearGradient id="v" x1="105.921" x2="105.921" y1="150.672" y2="160.604" gradientUnits="userSpaceOnUse"><stop stop-color="#CFCFCF"/><stop offset="1" stop-color="#B0B0B0"/></linearGradient><linearGradient id="w" x1="105.867" x2="105.867" y1="157.602" y2="158.682" gradientUnits="userSpaceOnUse"><stop stop-color="#CFCFCF"/><stop offset="1" stop-color="#B0B0B0"/></linearGradient><linearGradient id="x" x1="105.357" x2="105.357" y1="0" y2="208.85" gradientUnits="userSpaceOnUse"><stop stop-color="#CFCFCF"/><stop offset="1" stop-color="#B0B0B0"/></linearGradient><linearGradient id="y" x1="105.3" x2="105.3" y1="7.477" y2="206.38" gradientUnits="userSpaceOnUse"><stop stop-color="#CFCFCF"/><stop offset="1" stop-color="#B0B0B0"/></linearGradient><linearGradient id="z" x1="105.237" x2="105.237" y1="14.955" y2="203.912" gradientUnits="userSpaceOnUse"><stop stop-color="#CFCFCF"/><stop offset="1" stop-color="#B0B0B0"/></linearGradient><linearGradient id="A" x1="105.183" x2="105.183" y1="22.432" y2="201.442" gradientUnits="userSpaceOnUse"><stop stop-color="#CFCFCF"/><stop offset="1" stop-color="#B0B0B0"/></linearGradient><linearGradient id="B" x1="105.12" x2="105.12" y1="29.896" y2="198.974" gradientUnits="userSpaceOnUse"><stop stop-color="#CFCFCF"/><stop offset="1" stop-color="#B0B0B0"/></linearGradient><linearGradient id="C" x1="105.068" x2="105.068" y1="37.373" y2="196.504" gradientUnits="userSpaceOnUse"><stop stop-color="#CFCFCF"/><stop offset="1" stop-color="#B0B0B0"/></linearGradient><linearGradient id="D" x1="105.005" x2="105.005" y1="44.852" y2="194.036" gradientUnits="userSpaceOnUse"><stop stop-color="#CFCFCF"/><stop offset="1" stop-color="#B0B0B0"/></linearGradient><linearGradient id="E" x1="104.951" x2="104.951" y1="52.328" y2="191.566" gradientUnits="userSpaceOnUse"><stop stop-color="#CFCFCF"/><stop offset="1" stop-color="#B0B0B0"/></linearGradient><linearGradient id="F" x1="104.888" x2="104.888" y1="59.805" y2="189.096" gradientUnits="userSpaceOnUse"><stop stop-color="#CFCFCF"/><stop offset="1" stop-color="#B0B0B0"/></linearGradient><linearGradient id="G" x1="104.84" x2="104.84" y1="67.283" y2="186.628" gradientUnits="userSpaceOnUse"><stop stop-color="#CFCFCF"/><stop offset="1" stop-color="#B0B0B0"/></linearGradient><linearGradient id="H" x1="104.777" x2="104.777" y1="74.76" y2="184.158" gradientUnits="userSpaceOnUse"><stop stop-color="#CFCFCF"/><stop offset="1" stop-color="#B0B0B0"/></linearGradient><linearGradient id="I" x1="104.714" x2="104.714" y1="82.225" y2="181.676" gradientUnits="userSpaceOnUse"><stop stop-color="#CFCFCF"/><stop offset="1" stop-color="#B0B0B0"/></linearGradient><linearGradient id="J" x1="104.656" x2="104.656" y1="89.701" y2="179.206" gradientUnits="userSpaceOnUse"><stop stop-color="#CFCFCF"/><stop offset="1" stop-color="#B0B0B0"/></linearGradient><linearGradient id="K" x1="104.6" x2="104.6" y1="97.18" y2="176.738" gradientUnits="userSpaceOnUse"><stop stop-color="#CFCFCF"/><stop offset="1" stop-color="#B0B0B0"/></linearGradient><linearGradient id="L" x1="104.545" x2="104.545" y1="104.656" y2="174.268" gradientUnits="userSpaceOnUse"><stop stop-color="#CFCFCF"/><stop offset="1" stop-color="#B0B0B0"/></linearGradient><linearGradient id="M" x1="104.482" x2="104.482" y1="112.133" y2="171.798" gradientUnits="userSpaceOnUse"><stop stop-color="#CFCFCF"/><stop offset="1" stop-color="#B0B0B0"/></linearGradient><linearGradient id="N" x1="104.428" x2="104.428" y1="119.611" y2="169.33" gradientUnits="userSpaceOnUse"><stop stop-color="#CFCFCF"/><stop offset="1" stop-color="#B0B0B0"/></linearGradient><linearGradient id="O" x1="104.371" x2="104.371" y1="127.088" y2="166.86" gradientUnits="userSpaceOnUse"><stop stop-color="#CFCFCF"/><stop offset="1" stop-color="#B0B0B0"/></linearGradient><linearGradient id="P" x1="104.313" x2="104.313" y1="134.553" y2="164.392" gradientUnits="userSpaceOnUse"><stop stop-color="#CFCFCF"/><stop offset="1" stop-color="#B0B0B0"/></linearGradient><linearGradient id="Q" x1="104.25" x2="104.25" y1="142.029" y2="161.922" gradientUnits="userSpaceOnUse"><stop stop-color="#CFCFCF"/><stop offset="1" stop-color="#B0B0B0"/></linearGradient><linearGradient id="R" x1="104.196" x2="104.196" y1="149.508" y2="159.454" gradientUnits="userSpaceOnUse"><stop stop-color="#CFCFCF"/><stop offset="1" stop-color="#B0B0B0"/></linearGradient><linearGradient id="S" x1="104.139" x2="104.139" y1="156.437" y2="157.532" gradientUnits="userSpaceOnUse"><stop stop-color="#CFCFCF"/><stop offset="1" stop-color="#B0B0B0"/></linearGradient><clipPath id="a"><path fill="#fff" d="M0 0h210v210H0z"/></clipPath></defs></svg>