<svg xmlns="http://www.w3.org/2000/svg" width="189" height="168" fill="none"><g stroke-miterlimit="10" stroke-width=".8" clip-path="url(#a)" opacity=".9"><path stroke="url(#b)" d="M188.418 108.944c1.725-24.018-38.925-46.542-90.794-50.307S2.31 71.289.584 95.307s38.925 46.543 90.794 50.308 95.315-12.652 97.04-36.671Z"/><path stroke="url(#c)" d="M184.964 103.937c.677-23.48-39.892-43.714-90.612-45.192-50.721-1.478-92.387 16.36-93.064 39.84-.677 23.482 39.892 43.715 90.613 45.193s92.386-16.36 93.063-39.841Z"/><path stroke="url(#d)" d="M92.446 141.963c49.569-.809 89.453-20.069 89.082-43.018-.37-22.95-40.854-40.898-90.424-40.09-49.569.81-89.452 20.07-89.082 43.019.371 22.95 40.855 40.898 90.424 40.089Z"/><path stroke="url(#e)" d="M92.994 140.138c48.414-3.097 86.512-23.782 85.093-46.203-1.419-22.42-41.816-38.085-90.23-34.989S1.345 82.728 2.764 105.15c1.419 22.42 41.816 38.085 90.23 34.989Z"/><path stroke="url(#f)" d="M93.507 138.298c47.264-5.381 83.581-27.483 81.116-49.366-2.464-21.883-42.777-35.262-90.04-29.881-47.264 5.38-83.581 27.482-81.117 49.366 2.465 21.883 42.777 35.261 90.041 29.881Z"/><path stroke="url(#g)" d="M94.037 136.476c46.117-7.668 80.656-31.191 77.145-52.54-3.512-21.35-43.744-32.442-89.862-24.774S.663 90.352 4.175 111.702c3.511 21.35 43.744 32.442 89.862 24.774Z"/><path stroke="url(#h)" d="M94.576 134.652c44.963-9.956 77.715-34.901 73.156-55.718-4.56-20.816-44.706-29.62-89.668-19.665S.349 94.17 4.909 114.987c4.56 20.816 44.705 29.62 89.667 19.665Z"/><path stroke="url(#i)" d="M95.109 132.831c43.815-12.241 74.788-38.612 69.18-58.9s-45.672-26.812-89.487-14.57C30.988 71.602.015 97.973 5.622 118.26c5.608 20.288 45.672 26.811 89.487 14.57Z"/><path stroke="url(#j)" d="M95.654 130.987c42.659-14.534 71.844-42.33 65.186-62.085-6.659-19.755-46.638-23.987-89.298-9.452C28.883 73.984-.302 101.78 6.357 121.535c6.658 19.754 46.638 23.986 89.297 9.452Z"/><path stroke="url(#k)" d="M96.174 129.155c41.512-16.82 68.92-46.033 61.217-65.249s-47.599-21.158-89.11-4.338-68.92 46.033-61.217 65.249 47.599 21.158 89.11 4.338Z"/><path stroke="url(#l)" d="M96.695 127.327c40.361-19.104 65.987-49.737 57.238-68.421s-48.56-18.345-88.92.758C24.653 78.768-.974 109.401 7.775 128.085s48.56 18.345 88.92-.758Z"/><path stroke="url(#m)" d="M97.242 125.506c39.207-21.394 63.048-53.451 53.25-71.602-9.798-18.15-49.525-15.521-88.732 5.873s-63.048 53.451-53.25 71.601c9.798 18.151 49.524 15.522 88.732-5.872Z"/><path stroke="url(#n)" d="M97.764 123.677c38.058-23.679 60.121-57.156 49.277-74.773C136.198 31.286 96.555 36.2 58.497 59.878s-60.12 57.156-49.277 74.773c10.843 17.618 50.486 12.704 88.544-10.974Z"/><path stroke="url(#o)" d="M98.305 121.822c36.907-25.972 57.185-60.875 45.293-77.957S92.147 33.991 55.24 59.963-1.945 120.838 9.947 137.92s51.451 9.874 88.358-16.098Z"/><path stroke="url(#p)" d="M98.838 120.012c35.757-28.26 54.255-64.584 41.316-81.133-12.938-16.55-52.414-7.056-88.171 21.204s-54.256 64.585-41.317 81.134c12.939 16.548 52.415 7.055 88.172-21.205Z"/><path stroke="url(#q)" d="M99.358 118.186c34.604-30.543 51.318-68.289 37.331-84.307s-53.378-4.243-87.982 26.3-51.318 68.289-37.33 84.307c13.986 16.019 53.377 4.244 87.981-26.3Z"/><path stroke="url(#r)" d="M99.899 116.354c33.454-32.834 48.385-72.004 33.35-87.489s-54.342-1.42-87.796 31.414-48.386 72.005-33.35 87.489c15.034 15.485 54.342 1.421 87.796-31.414Z"/><path stroke="url(#s)" d="M100.442 114.523c32.304-35.123 45.454-75.716 29.371-90.668s-55.307 1.398-87.611 36.521-45.454 75.716-29.37 90.668c16.082 14.953 55.307-1.399 87.61-36.521Z"/><path stroke="url(#t)" d="M100.961 112.697c31.153-37.407 42.524-79.42 25.397-93.838-17.126-14.418-56.265 4.219-87.419 41.626s-42.524 79.42-25.397 93.838 56.265-4.219 87.419-41.626Z"/><path stroke="url(#u)" d="M101.476 110.855c29.998-39.693 39.586-83.123 21.415-97.005s-57.22 7.04-87.218 46.733-39.587 83.122-21.416 97.004 57.22-7.04 87.219-46.732Z"/><path stroke="url(#v)" d="M102.036 109.036c28.847-41.98 36.649-86.835 17.426-100.187S61.27 18.702 32.423 60.68-4.225 147.517 14.998 160.87s58.191-9.854 87.038-51.833Z"/><path stroke="url(#w)" d="M102.556 107.222C130.26 62.956 136.29 16.679 116.024 3.857c-20.266-12.82-59.153 12.67-86.857 56.935s-33.734 90.543-13.469 103.364c20.266 12.822 59.154-12.669 86.858-56.934Z"/></g><defs><linearGradient id="b" x1=".584" x2="188.428" y1="95.308" y2="108.799" gradientUnits="userSpaceOnUse"><stop stop-color="#787878"/><stop offset="1" stop-color="#B4B4B4"/></linearGradient><linearGradient id="c" x1="1.288" x2="184.966" y1="98.585" y2="103.88" gradientUnits="userSpaceOnUse"><stop stop-color="#787878"/><stop offset="1" stop-color="#B4B4B4"/></linearGradient><linearGradient id="d" x1="91.104" x2="92.461" y1="58.856" y2="141.963" gradientUnits="userSpaceOnUse"><stop stop-color="#787878"/><stop offset="1" stop-color="#B4B4B4"/></linearGradient><linearGradient id="e" x1="87.857" x2="93.05" y1="58.946" y2="140.134" gradientUnits="userSpaceOnUse"><stop stop-color="#787878"/><stop offset="1" stop-color="#B4B4B4"/></linearGradient><linearGradient id="f" x1="84.582" x2="93.603" y1="59.051" y2="138.287" gradientUnits="userSpaceOnUse"><stop stop-color="#787878"/><stop offset="1" stop-color="#B4B4B4"/></linearGradient><linearGradient id="g" x1="81.32" x2="94.171" y1="59.162" y2="136.454" gradientUnits="userSpaceOnUse"><stop stop-color="#787878"/><stop offset="1" stop-color="#B4B4B4"/></linearGradient><linearGradient id="h" x1="78.064" x2="94.747" y1="59.269" y2="134.614" gradientUnits="userSpaceOnUse"><stop stop-color="#787878"/><stop offset="1" stop-color="#B4B4B4"/></linearGradient><linearGradient id="i" x1="74.802" x2="95.313" y1="59.361" y2="132.774" gradientUnits="userSpaceOnUse"><stop stop-color="#787878"/><stop offset="1" stop-color="#B4B4B4"/></linearGradient><linearGradient id="j" x1="71.542" x2="95.888" y1="59.45" y2="130.907" gradientUnits="userSpaceOnUse"><stop stop-color="#787878"/><stop offset="1" stop-color="#B4B4B4"/></linearGradient><linearGradient id="k" x1="68.281" x2="96.434" y1="59.568" y2="129.05" gradientUnits="userSpaceOnUse"><stop stop-color="#787878"/><stop offset="1" stop-color="#B4B4B4"/></linearGradient><linearGradient id="l" x1="65.013" x2="96.976" y1="59.664" y2="127.194" gradientUnits="userSpaceOnUse"><stop stop-color="#787878"/><stop offset="1" stop-color="#B4B4B4"/></linearGradient><linearGradient id="m" x1="61.76" x2="97.538" y1="59.777" y2="125.344" gradientUnits="userSpaceOnUse"><stop stop-color="#787878"/><stop offset="1" stop-color="#B4B4B4"/></linearGradient><linearGradient id="n" x1="58.497" x2="98.071" y1="59.878" y2="123.486" gradientUnits="userSpaceOnUse"><stop stop-color="#787878"/><stop offset="1" stop-color="#B4B4B4"/></linearGradient><linearGradient id="o" x1="55.24" x2="98.617" y1="59.963" y2="121.602" gradientUnits="userSpaceOnUse"><stop stop-color="#787878"/><stop offset="1" stop-color="#B4B4B4"/></linearGradient><linearGradient id="p" x1="51.983" x2="99.15" y1="60.083" y2="119.765" gradientUnits="userSpaceOnUse"><stop stop-color="#787878"/><stop offset="1" stop-color="#B4B4B4"/></linearGradient><linearGradient id="q" x1="48.707" x2="99.667" y1="60.179" y2="117.914" gradientUnits="userSpaceOnUse"><stop stop-color="#787878"/><stop offset="1" stop-color="#B4B4B4"/></linearGradient><linearGradient id="r" x1="45.453" x2="100.2" y1="60.279" y2="116.059" gradientUnits="userSpaceOnUse"><stop stop-color="#787878"/><stop offset="1" stop-color="#B4B4B4"/></linearGradient><linearGradient id="s" x1="42.202" x2="100.732" y1="60.376" y2="114.208" gradientUnits="userSpaceOnUse"><stop stop-color="#787878"/><stop offset="1" stop-color="#B4B4B4"/></linearGradient><linearGradient id="t" x1="38.939" x2="101.236" y1="60.485" y2="112.367" gradientUnits="userSpaceOnUse"><stop stop-color="#787878"/><stop offset="1" stop-color="#B4B4B4"/></linearGradient><linearGradient id="u" x1="35.673" x2="101.735" y1="60.583" y2="110.511" gradientUnits="userSpaceOnUse"><stop stop-color="#787878"/><stop offset="1" stop-color="#B4B4B4"/></linearGradient><linearGradient id="v" x1="32.423" x2="102.278" y1="60.681" y2="108.684" gradientUnits="userSpaceOnUse"><stop stop-color="#787878"/><stop offset="1" stop-color="#B4B4B4"/></linearGradient><linearGradient id="w" x1="29.167" x2="102.78" y1="60.792" y2="106.864" gradientUnits="userSpaceOnUse"><stop stop-color="#787878"/><stop offset="1" stop-color="#B4B4B4"/></linearGradient><clipPath id="a"><path fill="#fff" d="M0 0h189v168H0z"/></clipPath></defs></svg>