<svg xmlns="http://www.w3.org/2000/svg" width="195" height="175" fill="none"><path stroke="url(#a)" stroke-width=".5" d="M194.75 49.584c0 13.316-10.801 25.44-28.419 34.248-17.602 8.801-41.938 14.252-68.831 14.252s-51.229-5.45-68.831-14.252C11.05 75.023.25 62.9.25 49.584s10.801-25.44 28.419-34.248C46.27 6.535 70.607 1.084 97.5 1.084s51.229 5.45 68.831 14.252c17.618 8.809 28.419 20.932 28.419 34.248Z"/><path stroke="url(#b)" stroke-width=".5" d="M194.75 55c0 13.316-10.801 25.44-28.419 34.248C148.729 98.049 124.393 103.5 97.5 103.5s-51.229-5.45-68.831-14.252C11.05 80.439.25 68.316.25 55s10.801-25.44 28.419-34.248C46.27 11.951 70.607 6.5 97.5 6.5s51.229 5.45 68.831 14.252C183.949 29.561 194.75 41.684 194.75 55Z"/><path stroke="url(#c)" stroke-width=".5" d="M194.75 60.418c0 13.316-10.801 25.44-28.419 34.248-17.602 8.801-41.938 14.252-68.831 14.252s-51.229-5.451-68.831-14.252C11.05 85.857.25 73.734.25 60.418s10.801-25.44 28.419-34.248C46.27 17.37 70.607 11.918 97.5 11.918s51.229 5.45 68.831 14.252c17.618 8.809 28.419 20.932 28.419 34.248Z"/><path stroke="url(#d)" stroke-width=".5" d="M194.75 65.834c0 13.316-10.801 25.44-28.419 34.248-17.602 8.801-41.938 14.252-68.831 14.252s-51.229-5.451-68.831-14.252C11.05 91.273.25 79.15.25 65.834s10.801-25.44 28.419-34.248C46.27 22.785 70.607 17.334 97.5 17.334s51.229 5.45 68.831 14.252c17.618 8.809 28.419 20.932 28.419 34.248Z"/><path stroke="url(#e)" stroke-width=".5" d="M194.75 71.25c0 13.316-10.801 25.44-28.419 34.248-17.602 8.801-41.938 14.252-68.831 14.252s-51.229-5.451-68.831-14.252C11.05 96.689.25 84.566.25 71.25s10.801-25.44 28.419-34.248C46.27 28.201 70.607 22.75 97.5 22.75s51.229 5.45 68.831 14.252c17.618 8.809 28.419 20.932 28.419 34.248Z"/><path stroke="url(#f)" stroke-width=".5" d="M194.75 76.668c0 13.316-10.801 25.439-28.419 34.248-17.602 8.801-41.938 14.252-68.831 14.252s-51.229-5.451-68.831-14.252C11.05 102.107.25 89.984.25 76.668s10.801-25.44 28.419-34.248C46.27 33.62 70.607 28.168 97.5 28.168s51.229 5.45 68.831 14.252c17.618 8.809 28.419 20.932 28.419 34.248Z"/><path stroke="url(#g)" stroke-width=".5" d="M194.75 82.084c0 13.316-10.801 25.439-28.419 34.248-17.602 8.801-41.938 14.252-68.831 14.252s-51.229-5.451-68.831-14.252C11.05 107.523.25 95.4.25 82.084s10.801-25.44 28.419-34.248C46.27 39.035 70.607 33.584 97.5 33.584s51.229 5.45 68.831 14.252c17.618 8.809 28.419 20.932 28.419 34.248Z"/><path stroke="url(#h)" stroke-width=".5" d="M194.75 87.5c0 13.316-10.801 25.439-28.419 34.248C148.729 130.549 124.393 136 97.5 136s-51.229-5.451-68.831-14.252C11.05 112.939.25 100.816.25 87.5s10.801-25.44 28.419-34.248C46.27 44.451 70.607 39 97.5 39s51.229 5.45 68.831 14.252c17.618 8.809 28.419 20.932 28.419 34.248Z"/><path stroke="url(#i)" stroke-width=".5" d="M194.75 92.918c0 13.316-10.801 25.439-28.419 34.248-17.602 8.801-41.938 14.252-68.831 14.252s-51.229-5.451-68.831-14.252C11.05 118.357.25 106.234.25 92.918s10.801-25.44 28.419-34.248C46.27 49.87 70.607 44.418 97.5 44.418s51.229 5.45 68.831 14.252c17.618 8.809 28.419 20.932 28.419 34.248Z"/><path stroke="url(#j)" stroke-width=".5" d="M194.75 98.334c0 13.316-10.801 25.439-28.419 34.248-17.602 8.801-41.938 14.252-68.831 14.252s-51.229-5.451-68.831-14.252C11.05 123.773.25 111.65.25 98.334s10.801-25.44 28.419-34.248C46.27 55.285 70.607 49.834 97.5 49.834s51.229 5.45 68.831 14.252c17.618 8.809 28.419 20.932 28.419 34.248Z"/><path stroke="url(#k)" stroke-width=".5" d="M194.75 103.75c0 13.316-10.801 25.439-28.419 34.248-17.602 8.801-41.938 14.252-68.831 14.252s-51.229-5.451-68.831-14.252C11.05 129.189.25 117.066.25 103.75s10.801-25.44 28.419-34.248C46.27 60.701 70.607 55.25 97.5 55.25s51.229 5.45 68.831 14.252c17.618 8.809 28.419 20.932 28.419 34.248Z"/><path stroke="url(#l)" stroke-width=".5" d="M194.75 109.168c0 13.316-10.801 25.439-28.419 34.248-17.602 8.801-41.938 14.252-68.831 14.252s-51.229-5.451-68.831-14.252C11.05 134.607.25 122.484.25 109.168s10.801-25.44 28.419-34.248C46.27 66.12 70.607 60.668 97.5 60.668s51.229 5.45 68.831 14.252c17.618 8.809 28.419 20.932 28.419 34.248Z"/><path stroke="url(#m)" stroke-width=".5" d="M194.75 114.584c0 13.316-10.801 25.439-28.419 34.248-17.602 8.801-41.938 14.252-68.831 14.252s-51.229-5.451-68.831-14.252C11.05 140.023.25 127.9.25 114.584s10.801-25.44 28.419-34.248C46.27 71.535 70.607 66.084 97.5 66.084s51.229 5.45 68.831 14.252c17.618 8.809 28.419 20.932 28.419 34.248Z"/><path stroke="url(#n)" stroke-width=".5" d="M194.75 120c0 13.316-10.801 25.439-28.419 34.248-17.602 8.801-41.938 14.252-68.831 14.252s-51.229-5.451-68.831-14.252C11.05 145.439.25 133.316.25 120s10.801-25.44 28.419-34.248C46.27 76.951 70.607 71.5 97.5 71.5s51.229 5.45 68.831 14.252c17.618 8.809 28.419 20.932 28.419 34.248Z"/><path stroke="url(#o)" stroke-width=".5" d="M194.75 125.418c0 13.316-10.801 25.439-28.419 34.248-17.602 8.801-41.938 14.252-68.831 14.252s-51.229-5.451-68.831-14.252C11.05 150.857.25 138.734.25 125.418s10.801-25.44 28.419-34.248C46.27 82.37 70.607 76.918 97.5 76.918s51.229 5.45 68.831 14.252c17.618 8.809 28.419 20.932 28.419 34.248Z"/><defs><linearGradient id="a" x1="97.5" x2="97.5" y1=".834" y2="98.334" gradientUnits="userSpaceOnUse"><stop stop-color="#fff"/><stop offset="1" stop-color="#807D7D" stop-opacity=".54"/></linearGradient><linearGradient id="b" x1="97.5" x2="97.5" y1="6.25" y2="103.75" gradientUnits="userSpaceOnUse"><stop stop-color="#fff"/><stop offset="1" stop-color="#807D7D" stop-opacity=".54"/></linearGradient><linearGradient id="c" x1="97.5" x2="97.5" y1="11.668" y2="109.168" gradientUnits="userSpaceOnUse"><stop stop-color="#fff"/><stop offset="1" stop-color="#807D7D" stop-opacity=".54"/></linearGradient><linearGradient id="d" x1="97.5" x2="97.5" y1="17.084" y2="114.584" gradientUnits="userSpaceOnUse"><stop stop-color="#fff"/><stop offset="1" stop-color="#807D7D" stop-opacity=".54"/></linearGradient><linearGradient id="e" x1="97.5" x2="97.5" y1="22.5" y2="120" gradientUnits="userSpaceOnUse"><stop stop-color="#fff"/><stop offset="1" stop-color="#807D7D" stop-opacity=".54"/></linearGradient><linearGradient id="f" x1="97.5" x2="97.5" y1="27.918" y2="125.418" gradientUnits="userSpaceOnUse"><stop stop-color="#fff"/><stop offset="1" stop-color="#807D7D" stop-opacity=".54"/></linearGradient><linearGradient id="g" x1="97.5" x2="97.5" y1="33.334" y2="130.834" gradientUnits="userSpaceOnUse"><stop stop-color="#fff"/><stop offset="1" stop-color="#807D7D" stop-opacity=".54"/></linearGradient><linearGradient id="h" x1="97.5" x2="97.5" y1="38.75" y2="136.25" gradientUnits="userSpaceOnUse"><stop stop-color="#fff"/><stop offset="1" stop-color="#807D7D" stop-opacity=".54"/></linearGradient><linearGradient id="i" x1="97.5" x2="97.5" y1="44.168" y2="141.668" gradientUnits="userSpaceOnUse"><stop stop-color="#fff"/><stop offset="1" stop-color="#807D7D" stop-opacity=".54"/></linearGradient><linearGradient id="j" x1="97.5" x2="97.5" y1="49.584" y2="147.084" gradientUnits="userSpaceOnUse"><stop stop-color="#fff"/><stop offset="1" stop-color="#807D7D" stop-opacity=".54"/></linearGradient><linearGradient id="k" x1="97.5" x2="97.5" y1="55" y2="152.5" gradientUnits="userSpaceOnUse"><stop stop-color="#fff"/><stop offset="1" stop-color="#807D7D" stop-opacity=".54"/></linearGradient><linearGradient id="l" x1="97.5" x2="97.5" y1="60.418" y2="157.918" gradientUnits="userSpaceOnUse"><stop stop-color="#fff"/><stop offset="1" stop-color="#807D7D" stop-opacity=".54"/></linearGradient><linearGradient id="m" x1="97.5" x2="97.5" y1="65.834" y2="163.334" gradientUnits="userSpaceOnUse"><stop stop-color="#fff"/><stop offset="1" stop-color="#807D7D" stop-opacity=".54"/></linearGradient><linearGradient id="n" x1="97.5" x2="97.5" y1="71.25" y2="168.75" gradientUnits="userSpaceOnUse"><stop stop-color="#fff"/><stop offset="1" stop-color="#807D7D" stop-opacity=".54"/></linearGradient><linearGradient id="o" x1="97.5" x2="97.5" y1="76.668" y2="174.168" gradientUnits="userSpaceOnUse"><stop stop-color="#fff"/><stop offset="1" stop-color="#807D7D" stop-opacity=".54"/></linearGradient></defs></svg>