<svg xmlns="http://www.w3.org/2000/svg" width="196" height="196" fill="none"><path fill="url(#a)" d="M57.242 152.972c-3.75 0-6.72-1.047-8.785-3.151-5.056-5.155-3.959-16.283 2.992-30.523 13.57-27.79 45.41-60.028 70.987-71.874 11.676-5.405 20.581-5.854 25.078-1.257 5.056 5.155 3.959 16.284-2.991 30.523-13.572 27.791-45.42 60.028-70.988 71.875-6.331 2.931-11.856 4.407-16.303 4.407zm65.433-105.02c-25.467 11.796-57.187 43.915-70.708 71.605-6.84 14.01-7.967 24.889-3.101 29.865 4.318 4.408 12.993 3.919 24.43-1.376 25.467-11.796 57.187-43.914 70.708-71.605 6.841-14.01 7.967-24.89 3.101-29.865-4.317-4.407-12.993-3.919-24.43 1.376"/><path fill="url(#b)" d="M54.555 153.721c-4.377 0-7.777-1.257-9.981-3.77-5.145-5.873-3.26-17.998 5.195-33.275 15.944-28.797 50.476-60.696 76.98-71.096 11.647-4.567 20.402-4.408 24.66.458 5.145 5.874 3.26 17.999-5.196 33.275-15.944 28.798-50.475 60.697-76.98 71.097-5.634 2.214-10.59 3.311-14.688 3.311zm86.882-110.883c-4.018 0-8.904 1.096-14.478 3.28-26.395 10.36-60.797 42.14-76.681 70.838-8.327 15.047-10.241 26.933-5.265 32.616 4.088 4.667 12.624 4.777 24.021.3 26.395-10.361 60.796-42.14 76.681-70.838 8.326-15.047 10.241-26.933 5.265-32.617-2.094-2.383-5.345-3.58-9.543-3.58"/><path fill="url(#c)" d="M52.092 154.288c-5.155 0-9.064-1.516-11.417-4.527-5.215-6.671-2.423-19.824 7.648-36.077 18.387-29.675 55.571-60.936 82.883-69.691 11.537-3.7 20.103-2.902 24.111 2.233 5.215 6.671 2.423 19.824-7.638 36.077-18.387 29.676-55.571 60.936-82.883 69.691-4.777 1.536-9.044 2.294-12.694 2.294zM143.9 42.268c-3.58 0-7.798.758-12.524 2.273-27.203 8.715-64.237 39.866-82.565 69.442-9.941 16.034-12.733 28.947-7.678 35.419 3.86 4.936 12.196 5.663 23.483 2.044 27.203-8.715 64.237-39.866 82.564-69.442 9.942-16.034 12.734-28.947 7.679-35.419-2.244-2.871-5.993-4.317-10.959-4.317"/><path fill="url(#d)" d="M49.788 154.728c-6.062 0-10.48-1.854-13.003-5.504-5.235-7.568-1.455-21.758 10.35-38.919 20.901-30.393 60.668-60.716 88.638-67.607 11.527-2.841 19.624-1.425 23.433 4.079 5.235 7.568 1.455 21.758-10.351 38.919-20.9 30.393-60.666 60.716-88.636 67.606-3.87.958-7.36 1.426-10.43 1.426m96.415-112.887c-3.022 0-6.462.469-10.291 1.416-27.85 6.86-67.467 37.084-88.307 67.377-11.667 16.962-15.446 30.912-10.35 38.271 3.659 5.295 11.546 6.621 22.824 3.849 27.85-6.86 67.467-37.084 88.308-67.377 11.666-16.962 15.445-30.912 10.35-38.271-2.413-3.49-6.671-5.255-12.524-5.255z"/><path fill="url(#e)" d="M47.986 154.968c-7.25 0-12.395-2.253-15.067-6.661-5.185-8.555-.319-23.782 13.332-41.78 23.473-30.922 65.732-59.999 94.201-64.805 11.278-1.905 19.105.16 22.625 5.973 5.185 8.555.319 23.782-13.332 41.78-23.473 30.922-65.732 59.999-94.2 64.805-2.723.459-5.246.688-7.559.688M148.02 41.602c-2.273 0-4.766.23-7.468.678-28.349 4.786-70.44 33.764-93.832 64.586-13.312 17.53-18.278 32.906-13.302 41.132 3.39 5.594 11.008 7.568 22.037 5.704 28.349-4.787 70.438-33.764 93.832-64.586 13.312-17.53 18.277-32.906 13.302-41.132-2.563-4.228-7.539-6.382-14.569-6.382"/><path fill="url(#f)" d="M46.688 155.077c-8.755 0-14.798-2.772-17.59-8.117-4.966-9.513 1.227-26.195 16.593-44.603 26.075-31.26 70.708-58.742 99.495-61.255 10.989-.957 18.487 1.785 21.698 7.928 4.966 9.523-1.236 26.195-16.592 44.602-26.076 31.261-70.708 58.743-99.496 61.255-1.426.12-2.802.19-4.108.19m98.558-113.396c-28.648 2.503-73.111 29.884-99.107 61.045-15.206 18.228-21.379 34.671-16.523 43.975 3.092 5.923 10.4 8.555 21.14 7.618 28.648-2.503 73.111-29.885 99.107-61.046 15.207-18.227 21.379-34.67 16.523-43.974-3.091-5.923-10.401-8.556-21.14-7.618"/><path fill="url(#g)" d="M46.043 155.106h-.01c-10.64 0-17.78-3.45-20.652-9.951-4.716-10.72 2.802-28.419 20.133-47.365 28.698-31.38 75.554-56.897 104.452-56.897h.01c10.639 0 17.779 3.45 20.65 9.951 4.717 10.72-2.811 28.419-20.132 47.365-28.698 31.38-75.554 56.897-104.452 56.897M149.956 41.461c-28.758 0-75.415 25.437-104.023 56.718-17.171 18.766-24.66 36.246-20.033 46.746 2.772 6.282 9.722 9.613 20.123 9.613h.01c28.757 0 75.414-25.437 104.022-56.718 17.171-18.766 24.65-36.246 20.033-46.746-2.772-6.283-9.722-9.613-20.122-9.613z"/><path fill="url(#h)" d="M46.068 155.109c-1.665 0-3.27-.07-4.826-.219-10.26-.977-17.001-5.156-19.484-12.076-4.318-12.025 4.637-30.712 23.961-49.987 31.33-31.26 80.241-54.464 109.039-51.722 10.26.977 17.001 5.155 19.484 12.075 4.318 12.026-4.637 30.713-23.961 49.988-29.646 29.575-75.026 51.941-104.203 51.941zM149.902 41.464c-29.037 0-74.238 22.286-103.784 51.772-19.155 19.115-28.06 37.583-23.822 49.389 2.403 6.691 8.974 10.739 18.996 11.696 28.638 2.733 77.349-20.391 108.57-51.552 19.155-19.116 28.06-37.583 23.822-49.39-2.403-6.69-8.975-10.738-18.996-11.696a50 50 0 0 0-4.796-.22z"/><path fill="url(#i)" d="M46.909 155.145c-3.72 0-7.2-.309-10.41-.957-9.862-1.974-16.154-6.92-18.199-14.309-3.719-13.442 6.771-33.036 28.06-52.42 33.943-30.892 84.698-51.373 113.137-45.67 9.862 1.974 16.154 6.92 18.198 14.31 3.719 13.44-6.771 33.035-28.06 52.42-30.114 27.401-73.47 46.626-102.726 46.626M149.057 41.41c-29.107 0-72.284 19.166-102.308 46.478-21.13 19.235-31.56 38.609-27.89 51.841 1.984 7.16 8.127 11.966 17.76 13.901 3.18.638 6.64.947 10.33.947 29.106 0 72.283-19.165 102.307-46.477 21.13-19.235 31.56-38.61 27.891-51.842-1.985-7.16-8.127-11.966-17.76-13.9-3.181-.639-6.641-.948-10.33-.948"/><path fill="url(#j)" d="M48.681 155.318c-6.242 0-11.936-.748-16.862-2.313-9.443-3.012-15.246-8.785-16.782-16.713-2.902-14.947 9.224-35.339 32.428-54.554C83.97 51.505 136.33 34.124 164.17 42.998c9.443 3.012 15.246 8.786 16.782 16.713 2.902 14.947-9.224 35.34-32.427 54.554-30.044 24.879-70.828 41.053-99.845 41.053m98.588-114.074c-28.867 0-69.481 16.134-99.436 40.933-23.034 19.075-35.09 39.268-32.227 53.996 1.495 7.708 7.169 13.332 16.393 16.273 27.68 8.815 79.792-8.516 116.168-38.639 23.034-19.076 35.089-39.268 32.228-53.996-1.496-7.708-7.17-13.332-16.393-16.274-4.887-1.555-10.54-2.303-16.733-2.303z"/><path fill="url(#k)" d="M51.535 155.715c-9.304 0-17.59-1.436-24.26-4.458-9.025-4.098-14.29-10.789-15.227-19.344-1.805-16.493 12.035-37.533 37.014-56.28C88.07 46.358 141.747 32.497 168.72 44.743c9.024 4.098 14.289 10.789 15.227 19.345 1.804 16.492-12.036 37.532-37.015 56.279-29.366 22.047-67.058 35.349-95.397 35.349m92.894-114.882c-28.199 0-65.742 13.272-95.018 35.25-24.82 18.626-38.57 39.476-36.785 55.76.907 8.346 6.063 14.877 14.888 18.886 26.803 12.165 80.22-1.665 119.069-30.832 24.819-18.627 38.57-39.477 36.785-55.76-.907-8.347-6.063-14.878-14.887-18.887-6.601-3.001-14.828-4.417-24.052-4.417"/><path fill="url(#l)" d="M55.494 156.472c-12.933 0-24.27-2.423-32.597-7.528-8.605-5.275-13.262-12.983-13.471-22.297-.409-18.028 15.206-39.517 41.77-57.485 41.412-28.01 96.106-37.932 121.912-22.117 8.606 5.275 13.262 12.983 13.472 22.296.408 18.029-15.207 39.517-41.771 57.486-28.05 18.966-62.182 29.645-89.315 29.645m84.997-116.397c-26.993 0-61.005 10.65-88.976 29.565-26.394 17.86-41.92 39.158-41.52 56.997.199 9.104 4.766 16.653 13.192 21.818 25.636 15.715 80.041 5.793 121.293-22.097 26.394-17.859 41.92-39.158 41.521-56.997-.199-9.104-4.766-16.653-13.192-21.818-8.256-5.055-19.494-7.458-32.318-7.458z"/><path fill="url(#m)" d="M60.498 157.719c-17.101 0-31.959-3.809-41.771-11.706-8.177-6.581-12.135-15.446-11.447-25.637 1.306-19.484 18.726-41.172 46.597-58.014 43.705-26.415 99.057-31.979 123.397-12.395 8.177 6.581 12.135 15.446 11.447 25.637-1.306 19.484-18.726 41.172-46.597 58.014-26.075 15.765-56.309 24.101-81.616 24.101zm74.995-118.89c-25.198 0-55.322 8.316-81.327 24.031-27.711 16.753-45.022 38.271-46.318 57.566-.668 10.001 3.21 18.697 11.238 25.148 24.16 19.435 79.224 13.86 122.739-12.444 27.711-16.752 45.022-38.261 46.318-57.556.668-10.001-3.221-18.696-11.238-25.148-9.722-7.818-24.45-11.597-41.412-11.597"/><path fill="url(#n)" d="M66.35 159.594c-21.718 0-40.534-5.684-51.513-17.131-7.718-8.057-10.859-18.238-9.064-29.466 3.31-20.75 22.516-42.329 51.363-57.735 45.849-24.47 101.48-25.248 124.026-1.735 7.718 8.057 10.859 18.238 9.064 29.466-3.311 20.751-22.516 42.329-51.363 57.735-23.523 12.554-49.628 18.866-72.513 18.866m63.319-122.64c-22.785 0-48.8 6.302-72.264 18.817C28.707 71.087 9.612 92.516 6.331 113.087c-1.755 11.038 1.327 21.06 8.915 28.977 22.376 23.333 77.698 22.506 123.337-1.845 28.698-15.316 47.794-36.745 51.075-57.316 1.765-11.038-1.327-21.06-8.915-28.977-10.869-11.338-29.536-16.972-51.074-16.972"/><path fill="url(#o)" d="M72.653 162.216c-26.604 0-49.718-8.207-61.385-23.972-7.21-9.752-9.353-21.459-6.182-33.843 5.554-21.738 26.454-42.858 55.93-56.519 47.813-22.146 103.305-17.729 123.716 9.872 7.21 9.752 9.354 21.459 6.193 33.844-5.554 21.737-26.455 42.857-55.92 56.518-20.482 9.493-42.39 14.1-62.332 14.1zm50.715-127.875c-19.863 0-41.691 4.597-62.123 14.06-29.316 13.581-50.097 34.561-55.61 56.13-3.122 12.215-1.018 23.752 6.092 33.364 20.252 27.382 75.434 31.73 123.008 9.693 29.317-13.582 50.097-34.562 55.611-56.14 3.121-12.215 1.018-23.752-6.092-33.365-11.557-15.625-34.492-23.752-60.886-23.752z"/><path fill="url(#p)" d="M78.956 165.656c-31.56 0-59.141-11.497-70.868-32.328-6.6-11.726-7.528-25.138-2.662-38.809 7.947-22.326 30.403-42.618 60.088-54.265 49.569-19.454 104.472-9.413 122.4 22.406 6.602 11.727 7.529 25.138 2.663 38.809-7.947 22.326-30.403 42.618-60.088 54.265-17.122 6.721-34.88 9.922-51.523 9.922zm38.111-134.755c-16.583 0-34.282 3.19-51.343 9.891-29.526 11.587-51.862 31.75-59.75 53.926-4.806 13.512-3.899 26.764 2.623 38.341 17.789 31.57 72.373 41.511 121.682 22.147 29.526-11.587 51.862-31.75 59.749-53.926 4.807-13.512 3.899-26.764-2.622-38.34-11.637-20.642-38.999-32.04-70.339-32.04"/><path fill="url(#q)" d="M84.798 169.982c-36.426 0-68.385-15.715-79.463-42.259C-.51 113.713.06 98.387 6.99 83.379c10.37-22.455 34.162-41.51 63.658-50.964 51.074-16.373 104.91-.299 119.987 35.848 5.844 14.01 5.275 29.336-1.655 44.343-10.37 22.456-34.162 41.511-63.658 50.964-13.571 4.348-27.352 6.412-40.534 6.412zm26.414-143.41c-13.132 0-26.853 2.054-40.374 6.392C41.5 42.367 17.829 61.303 7.528 83.619.668 98.476.1 113.643 5.883 127.503c10.979 26.325 42.718 41.911 78.905 41.911 13.132 0 26.853-2.054 40.374-6.392 29.336-9.403 53.009-28.339 63.309-50.655 6.861-14.858 7.429-30.025 1.646-43.885-10.979-26.325-42.718-41.91-78.905-41.91"/><path fill="url(#r)" d="M89.824 175.201c-41.103 0-77.11-20.99-86.712-53.806-4.866-16.633-2.483-34.043 6.9-50.347 12.883-22.396 37.114-39.387 66.46-46.626 52.321-12.894 104.541 9.612 116.417 50.166 4.866 16.633 2.483 34.043-6.9 50.346-12.883 22.396-37.114 39.388-66.46 46.627-9.991 2.463-19.993 3.64-29.705 3.64m16.363-153.84c-9.672 0-19.614 1.166-29.575 3.619-29.197 7.2-53.298 24.091-66.101 46.348C1.206 87.5-1.167 104.752 3.66 121.225c9.532 32.557 45.3 53.387 86.153 53.387 9.672 0 19.614-1.166 29.575-3.619 29.197-7.2 53.298-24.091 66.102-46.348 9.303-16.174 11.676-33.424 6.85-49.897-9.533-32.557-45.301-53.398-86.154-53.398z"/><path fill="url(#s)" d="M93.765 181.304c-45.57 0-85.057-27.422-92.337-66.959-3.56-19.325 1.117-39.457 13.163-56.668 15.027-21.469 39.946-36.546 68.375-41.352C136.213 7.321 186.28 36.627 194.567 81.66c3.559 19.324-1.117 39.457-13.163 56.668-15.027 21.468-39.946 36.545-68.374 41.351a115.7 115.7 0 0 1-19.265 1.626m8.465-166.036c-6.302 0-12.713.529-19.175 1.616C54.776 21.67 29.987 36.657 15.06 57.996 3.104 75.087-1.544 95.06 1.986 114.235c7.23 39.268 46.477 66.49 91.768 66.49 6.302 0 12.713-.528 19.175-1.615 28.279-4.786 53.068-19.773 67.996-41.112 11.955-17.092 16.602-37.055 13.072-56.23-7.229-39.268-46.477-66.49-91.768-66.49z"/><path fill="url(#t)" d="M96.51 188.242c-49.868 0-92.057-35.059-96.135-81.706-4.338-49.539 35.937-93.672 89.763-98.38 26.076-2.283 51.403 4.917 71.326 20.263 19.933 15.356 32.059 37.034 34.163 61.036 2.104 24.001-6.083 47.454-23.044 66.041-16.952 18.577-40.654 30.064-66.72 32.348-3.141.279-6.262.408-9.353.408zM99.591 8.316c-3.12 0-6.252.14-9.403.41-53.517 4.686-93.553 48.54-89.245 97.76 4.058 46.348 46.009 81.178 95.567 81.188 3.071 0 6.172-.13 9.303-.409 25.926-2.273 49.489-13.691 66.351-32.158 16.852-18.467 24.978-41.761 22.894-65.602s-14.139-45.37-33.943-60.627c-17.4-13.412-38.958-20.562-61.524-20.562"/><path fill="url(#u)" d="M98 196c-54.036 0-98-43.964-98-98S43.964 0 98 0s98 43.964 98 98-43.964 98-98 98M98 .568C44.284.568.578 44.274.578 97.99c0 53.717 43.705 97.422 97.422 97.422s97.422-43.705 97.422-97.422S151.717.568 98 .568"/><defs><linearGradient id="a" x1="43.909" x2="134.334" y1="59.782" y2="149.088" gradientUnits="userSpaceOnUse"><stop stop-color="#949494"/><stop offset="1" stop-color="#999"/></linearGradient><linearGradient id="b" x1="40.218" x2="131.81" y1="59.261" y2="154.601" gradientUnits="userSpaceOnUse"><stop stop-color="#949494"/><stop offset="1" stop-color="#999"/></linearGradient><linearGradient id="c" x1="36.496" x2="128.701" y1="58.866" y2="160.005" gradientUnits="userSpaceOnUse"><stop stop-color="#949494"/><stop offset="1" stop-color="#999"/></linearGradient><linearGradient id="d" x1="32.778" x2="125.141" y1="58.569" y2="165.181" gradientUnits="userSpaceOnUse"><stop stop-color="#949494"/><stop offset="1" stop-color="#999"/></linearGradient><linearGradient id="e" x1="29.092" x2="121.057" y1="58.405" y2="170.094" gradientUnits="userSpaceOnUse"><stop stop-color="#949494"/><stop offset="1" stop-color="#999"/></linearGradient><linearGradient id="f" x1="25.526" x2="116.72" y1="58.322" y2="174.563" gradientUnits="userSpaceOnUse"><stop stop-color="#949494"/><stop offset="1" stop-color="#999"/></linearGradient><linearGradient id="g" x1="22.017" x2="112.144" y1="58.307" y2="178.718" gradientUnits="userSpaceOnUse"><stop stop-color="#949494"/><stop offset="1" stop-color="#999"/></linearGradient><linearGradient id="h" x1="18.619" x2="107.577" y1="58.301" y2="182.445" gradientUnits="userSpaceOnUse"><stop stop-color="#949494"/><stop offset="1" stop-color="#999"/></linearGradient><linearGradient id="i" x1="15.407" x2="103.265" y1="58.265" y2="185.739" gradientUnits="userSpaceOnUse"><stop stop-color="#949494"/><stop offset="1" stop-color="#999"/></linearGradient><linearGradient id="j" x1="12.379" x2="99.417" y1="58.159" y2="188.693" gradientUnits="userSpaceOnUse"><stop stop-color="#949494"/><stop offset="1" stop-color="#999"/></linearGradient><linearGradient id="k" x1="9.583" x2="96.351" y1="57.885" y2="191.345" gradientUnits="userSpaceOnUse"><stop stop-color="#949494"/><stop offset="1" stop-color="#999"/></linearGradient><linearGradient id="l" x1="7.044" x2="94.407" y1="57.35" y2="193.791" gradientUnits="userSpaceOnUse"><stop stop-color="#949494"/><stop offset="1" stop-color="#999"/></linearGradient><linearGradient id="m" x1="4.77" x2="93.872" y1="56.475" y2="196.12" gradientUnits="userSpaceOnUse"><stop stop-color="#949494"/><stop offset="1" stop-color="#999"/></linearGradient><linearGradient id="n" x1="2.796" x2="95.076" y1="55.174" y2="198.366" gradientUnits="userSpaceOnUse"><stop stop-color="#949494"/><stop offset="1" stop-color="#999"/></linearGradient><linearGradient id="o" x1="1.132" x2="98.274" y1="53.362" y2="200.491" gradientUnits="userSpaceOnUse"><stop stop-color="#949494"/><stop offset="1" stop-color="#999"/></linearGradient><linearGradient id="p" x1="-.212" x2="103.63" y1="50.967" y2="202.31" gradientUnits="userSpaceOnUse"><stop stop-color="#949494"/><stop offset="1" stop-color="#999"/></linearGradient><linearGradient id="q" x1="-1.254" x2="111.169" y1="47.956" y2="203.564" gradientUnits="userSpaceOnUse"><stop stop-color="#949494"/><stop offset="1" stop-color="#999"/></linearGradient><linearGradient id="r" x1="-1.957" x2="120.795" y1="44.331" y2="203.897" gradientUnits="userSpaceOnUse"><stop stop-color="#949494"/><stop offset="1" stop-color="#999"/></linearGradient><linearGradient id="s" x1="-2.354" x2="132.228" y1="40.101" y2="202.885" gradientUnits="userSpaceOnUse"><stop stop-color="#949494"/><stop offset="1" stop-color="#999"/></linearGradient><linearGradient id="t" x1="-2.571" x2="144.96" y1="35.265" y2="200.328" gradientUnits="userSpaceOnUse"><stop stop-color="#949494"/><stop offset="1" stop-color="#999"/></linearGradient><linearGradient id="u" x1="-2.627" x2="158.5" y1="29.884" y2="196" gradientUnits="userSpaceOnUse"><stop stop-color="#949494"/><stop offset="1" stop-color="#999"/></linearGradient></defs></svg>