<svg xmlns="http://www.w3.org/2000/svg" width="212" height="181" fill="none"><circle cx="128.285" cy="84.674" r="72.064" stroke="url(#a)" stroke-width=".4" transform="rotate(-10 128.285 84.674)"/><circle cx="119.019" cy="91.552" r="66.902" stroke="url(#b)" stroke-width=".4" transform="rotate(-10 119.019 91.552)"/><circle cx="109.742" cy="98.424" r="61.741" stroke="url(#c)" stroke-width=".4" transform="rotate(-10 109.742 98.424)"/><circle cx="100.476" cy="105.301" r="56.579" stroke="url(#d)" stroke-width=".4" transform="rotate(-10 100.476 105.301)"/><circle cx="91.198" cy="112.179" r="51.417" stroke="url(#e)" stroke-width=".4" transform="rotate(-10 91.198 112.179)"/><circle cx="81.932" cy="119.053" r="46.255" stroke="url(#f)" stroke-width=".4" transform="rotate(-10 81.932 119.053)"/><circle cx="72.666" cy="125.928" r="41.094" stroke="url(#g)" stroke-width=".4" transform="rotate(-10 72.666 125.928)"/><circle cx="63.392" cy="132.806" r="35.932" stroke="url(#h)" stroke-width=".4" transform="rotate(-10 63.392 132.806)"/><circle cx="51.586" cy="140.127" r="30.77" stroke="url(#i)" stroke-width=".4" transform="rotate(-10 51.586 140.127)"/><circle cx="42.309" cy="147.005" r="25.609" stroke="url(#j)" stroke-width=".4" transform="rotate(-10 42.309 147.005)"/><circle cx="30.503" cy="154.332" r="20.447" stroke="url(#k)" stroke-width=".4" transform="rotate(-10 30.503 154.332)"/><circle cx="21.225" cy="161.204" r="15.285" stroke="url(#l)" stroke-width=".4" transform="rotate(-10 21.225 161.204)"/><circle cx="11.959" cy="168.082" r="10.123" stroke="url(#m)" stroke-width=".4" transform="rotate(-10 11.96 168.082)"/><defs><linearGradient id="a" x1="128.285" x2="128.285" y1="12.41" y2="156.938" gradientUnits="userSpaceOnUse"><stop stop-color="#fff" stop-opacity=".18"/><stop offset="1" stop-color="#fff"/></linearGradient><linearGradient id="b" x1="119.019" x2="119.019" y1="24.449" y2="158.654" gradientUnits="userSpaceOnUse"><stop stop-color="#fff" stop-opacity=".18"/><stop offset="1" stop-color="#fff"/></linearGradient><linearGradient id="c" x1="109.742" x2="109.742" y1="36.483" y2="160.364" gradientUnits="userSpaceOnUse"><stop stop-color="#fff" stop-opacity=".18"/><stop offset="1" stop-color="#fff"/></linearGradient><linearGradient id="d" x1="100.476" x2="100.476" y1="48.522" y2="162.08" gradientUnits="userSpaceOnUse"><stop stop-color="#fff" stop-opacity=".18"/><stop offset="1" stop-color="#fff"/></linearGradient><linearGradient id="e" x1="91.198" x2="91.198" y1="60.562" y2="163.796" gradientUnits="userSpaceOnUse"><stop stop-color="#fff" stop-opacity=".18"/><stop offset="1" stop-color="#fff"/></linearGradient><linearGradient id="f" x1="81.932" x2="81.932" y1="72.597" y2="165.508" gradientUnits="userSpaceOnUse"><stop stop-color="#fff" stop-opacity=".18"/><stop offset="1" stop-color="#fff"/></linearGradient><linearGradient id="g" x1="72.666" x2="72.666" y1="84.635" y2="167.222" gradientUnits="userSpaceOnUse"><stop stop-color="#fff" stop-opacity=".18"/><stop offset="1" stop-color="#fff"/></linearGradient><linearGradient id="h" x1="63.392" x2="63.392" y1="96.674" y2="168.938" gradientUnits="userSpaceOnUse"><stop stop-color="#fff" stop-opacity=".18"/><stop offset="1" stop-color="#fff"/></linearGradient><linearGradient id="i" x1="51.586" x2="51.586" y1="109.157" y2="171.098" gradientUnits="userSpaceOnUse"><stop stop-color="#fff" stop-opacity=".18"/><stop offset="1" stop-color="#fff"/></linearGradient><linearGradient id="j" x1="42.309" x2="42.309" y1="121.196" y2="172.814" gradientUnits="userSpaceOnUse"><stop stop-color="#fff" stop-opacity=".18"/><stop offset="1" stop-color="#fff"/></linearGradient><linearGradient id="k" x1="30.503" x2="30.503" y1="133.685" y2="174.979" gradientUnits="userSpaceOnUse"><stop stop-color="#fff" stop-opacity=".18"/><stop offset="1" stop-color="#fff"/></linearGradient><linearGradient id="l" x1="21.225" x2="21.225" y1="145.719" y2="176.689" gradientUnits="userSpaceOnUse"><stop stop-color="#fff" stop-opacity=".18"/><stop offset="1" stop-color="#fff"/></linearGradient><linearGradient id="m" x1="11.959" x2="11.959" y1="157.758" y2="178.405" gradientUnits="userSpaceOnUse"><stop stop-color="#fff" stop-opacity=".18"/><stop offset="1" stop-color="#fff"/></linearGradient></defs></svg>